<?xml version="1.0" encoding="utf-8"?>
<!-- Generator: Adobe Illustrator 23.0.1, SVG Export Plug-In . SVG Version: 6.00 Build 0)  -->
<svg version="1.1" id="Layer_1" xmlns="http://www.w3.org/2000/svg" xmlns:xlink="http://www.w3.org/1999/xlink" x="0px" y="0px"
	 viewBox="0 0 32 32" style="enable-background:new 0 0 32 32;" xml:space="preserve">
<style type="text/css">
	.st0{fill:#FFFFFF;}
</style>
<g id="Layer_3">
	<g id="XMLID_1_">
		<g>
			<path class="st0" d="M29.8,14.6l1.3-0.1c0,0.5,0.1,1,0.1,1.5c0,8.4-6.8,15.2-15.2,15.2S0.8,24.4,0.8,16c0-0.5,0-1,0.1-1.5
				l1.3,0.1L16,28.3l3.7-3.7L29.8,14.6z"/>
			<path class="st0" d="M31.1,14.5l-1.3,0.1l-3.7-3.7L16,21L5.9,10.9l-3.7,3.7l-1.3-0.1C1.6,6.8,8.1,0.8,16,0.8S30.4,6.8,31.1,14.5z
				"/>
		</g>
	</g>
</g>
</svg>
