<?xml version="1.0" encoding="utf-8"?>
<!-- Generator: Adobe Illustrator 23.0.1, SVG Export Plug-In . SVG Version: 6.00 Build 0)  -->
<svg version="1.1" id="Layer_1" xmlns="http://www.w3.org/2000/svg" xmlns:xlink="http://www.w3.org/1999/xlink" x="0px" y="0px"
	 viewBox="0 0 32 32" style="enable-background:new 0 0 32 32;" xml:space="preserve">
<style type="text/css">
	.st0{fill:#FFFFFF;}
	.st1{fill:none;}
</style>
<g id="Layer_3">
</g>
<g>
	<g id="XMLID_1_">
		<g>
			<path class="st0" d="M30.2,21.5c-2.2,5.6-7.7,9.7-14.2,9.7s-11.9-4-14.2-9.7l0.4-0.1l3.7,3.7L16,15l10.1,10.1l3.7-3.7L30.2,21.5z
				"/>
			<path class="st0" d="M26.2,4.8c3.1,2.8,5,6.8,5,11.3c0,2-0.4,3.8-1,5.5l-0.4-0.1L19,10.6h6.8V5.4L26.2,4.8z"/>
			<path class="st0" d="M13.1,10.6L2.2,21.4l-0.4,0.1c-0.7-1.7-1-3.6-1-5.5c0-4.2,1.7-8,4.4-10.8l1,0.2v5.2L13.1,10.6z"/>
			<path class="st0" d="M16,0.8c3.9,0,7.5,1.5,10.2,4l-0.5,0.7H6.3l-1-0.2C8,2.5,11.8,0.8,16,0.8z"/>
		</g>
		<g>
			<path class="st1" d="M26.2,4.8c3.1,2.8,5,6.8,5,11.3c0,2-0.4,3.8-1,5.5c-2.2,5.6-7.7,9.7-14.2,9.7s-11.9-4-14.2-9.7
				c-0.7-1.7-1-3.6-1-5.5c0-4.2,1.7-8,4.4-10.8S11.8,0.8,16,0.8C19.9,0.8,23.5,2.3,26.2,4.8z"/>
			<polyline class="st1" points="19,10.6 29.8,21.4 26.1,25.1 16,15 5.9,25.1 2.2,21.4 13.1,10.6 			"/>
			<polygon class="st1" points="25.7,5.4 25.7,10.6 19,10.6 13.1,10.6 6.3,10.6 6.3,5.4 			"/>
		</g>
	</g>
</g>
</svg>
