<?xml version="1.0" encoding="utf-8"?>
<!-- Generator: Adobe Illustrator 18.0.0, SVG Export Plug-In . SVG Version: 6.00 Build 0)  -->
<!DOCTYPE svg PUBLIC "-//W3C//DTD SVG 1.1//EN" "http://www.w3.org/Graphics/SVG/1.1/DTD/svg11.dtd">
<svg version="1.1" id="Layer_1" xmlns="http://www.w3.org/2000/svg" xmlns:xlink="http://www.w3.org/1999/xlink" x="0px" y="0px"
	 viewBox="0 0 1366 768" enable-background="new 0 0 1366 768" xml:space="preserve">
<g id="Layer_1_1_">
	<g>
		<g>
			<g>
				<path fill="#191919" d="M330.2,177.9v37.6h21.9v5.6h-27.6v-43.2L330.2,177.9L330.2,177.9z"/>
				<path fill="#191919" d="M352.8,221.4h-28.9v-44.2h6.9v37.6h21.9L352.8,221.4L352.8,221.4z M325,220.3h26.5v-4.5h-21.9v-37.6H325
					V220.3L325,220.3z"/>
			</g>
			<g>
				<path fill="#191919" d="M384.2,209.5h-16.6l-4.5,11.4h-5.6l18.8-45h0.4l18.8,45h-6.7L384.2,209.5z M382.2,204.6l-6.1-15.7
					l-6.3,15.7H382.2z"/>
				<path fill="#191919" d="M396.3,221.4h-7.9l-4.5-11.4H368l-4.5,11.4h-6.9l19.3-46h1.1L396.3,221.4z M389.1,220.3h5.4L376.3,177
					L358,220.3h4.5l4.5-11.4h17.3L389.1,220.3z M383,205.1h-14.1l7.2-17.9L383,205.1z M370.5,203.9h10.8l-5.4-13.7L370.5,203.9z"/>
			</g>
			<g>
				<path fill="#191919" d="M409.1,210.7c0.9,1.6,2.2,2.7,3.8,3.6c1.6,0.9,3.3,1.3,5.2,1.3c2,0,3.8-0.4,5.4-1.3s2.9-2.2,3.8-3.6
					s1.3-3.3,1.3-5.2v-27.8h5.6v28.2c0,3.1-0.7,5.8-2.2,8.1c-1.4,2.3-3.3,4.2-6,5.4c-2.5,1.3-5.2,1.8-8.3,1.8
					c-3.1,0-5.6-0.7-8.1-1.8c-2.5-1.3-4.5-3.1-5.8-5.4c-1.4-2.3-2.2-5.1-2.2-8.1v-28h5.8v27.8C407.7,207.5,408.2,209.1,409.1,210.7z
					"/>
				<path fill="#191919" d="M418.2,221.9c-3.1,0-6-0.7-8.5-2s-4.5-3.3-6-5.6c-1.4-2.3-2.2-5.2-2.2-8.5v-28.5h6.9v28.4
					c0,1.8,0.4,3.4,1.3,4.9l0,0c0.9,1.4,2,2.5,3.6,3.4c1.4,0.9,3.1,1.3,4.9,1.3s3.6-0.4,5.1-1.3c1.6-0.7,2.7-2,3.6-3.4
					s1.3-3.1,1.3-4.9v-28.4h6.9V206c0,3.1-0.7,6-2.2,8.5c-1.4,2.5-3.6,4.3-6.1,5.6C424,221.2,421.2,221.9,418.2,221.9z M402.5,178.4
					v27.4c0,2.9,0.7,5.6,2,7.9c1.3,2.3,3.3,4,5.6,5.2c2.3,1.3,5.1,1.8,7.9,1.8c2.9,0,5.6-0.7,7.9-1.8c2.3-1.3,4.2-3.1,5.6-5.4
					c1.3-2.2,2.2-4.9,2.2-7.9v-27.4h-4.5v27.3c0,2-0.4,4-1.4,5.4c-1.1,1.6-2.3,2.9-4,4c-1.6,0.9-3.6,1.3-5.6,1.3s-4-0.4-5.4-1.4
					c-1.6-1.1-3.1-2.2-4-4l0,0c-1.1-1.6-1.4-3.4-1.4-5.4V178L402.5,178.4L402.5,178.4z"/>
			</g>
			<g>
				<path fill="#191919" d="M451.9,177.9v37.6h21.9v5.6h-27.6v-43.2L451.9,177.9L451.9,177.9z"/>
				<path fill="#191919" d="M474.3,221.4h-28.9v-44.2h6.9v37.6h21.9L474.3,221.4L474.3,221.4z M446.7,220.3h26.5v-4.5h-21.9v-37.6
					h-4.7v42.1H446.7z"/>
			</g>
			<g>
				<path fill="#191919" d="M489.9,210.7c0.9,1.6,2.2,2.7,3.6,3.6c1.6,0.9,3.3,1.3,5.2,1.3c2,0,3.8-0.4,5.4-1.3
					c1.6-0.9,2.9-2.2,3.8-3.6c0.9-1.6,1.3-3.3,1.3-5.2v-27.8h5.6v28.2c0,3.1-0.7,5.8-2.2,8.1c-1.4,2.3-3.3,4.2-6,5.4
					c-2.5,1.3-5.2,1.8-8.3,1.8s-5.6-0.7-8.1-1.8c-2.5-1.3-4.5-3.1-5.8-5.4c-1.4-2.3-2.2-5.1-2.2-8.1v-28h5.8v27.8
					C488.6,207.5,489,209.1,489.9,210.7z"/>
				<path fill="#191919" d="M498.7,221.9c-3.1,0-6-0.7-8.5-2s-4.5-3.3-6-5.6c-1.4-2.3-2.2-5.2-2.2-8.5v-28.5h6.9v28.4
					c0,1.8,0.4,3.4,1.3,4.9l0,0c0.9,1.4,2,2.5,3.6,3.4c1.4,0.9,3.1,1.3,4.9,1.3s3.6-0.4,5.1-1.3c1.6-0.7,2.7-2,3.6-3.4
					s1.3-3.1,1.3-4.9v-28.4h6.9V206c0,3.1-0.7,6-2.2,8.5s-3.6,4.3-6.1,5.6C504.9,221.2,502,221.9,498.7,221.9z M483.4,178.4v27.4
					c0,2.9,0.7,5.6,2,7.9c1.3,2.3,3.3,4,5.6,5.2c2.3,1.3,5.1,1.8,7.9,1.8c2.9,0,5.6-0.7,7.9-1.8c2.3-1.3,4.2-3.1,5.6-5.4
					c1.3-2.2,2.2-4.9,2.2-7.9v-27.4h-4.5v27.3c0,2-0.4,4-1.4,5.4c-1.1,1.6-2.3,2.9-4,4c-1.6,0.9-3.6,1.3-5.6,1.3s-4-0.4-5.4-1.4
					c-1.6-0.9-3.1-2.2-4-4c-1.1-1.6-1.4-3.4-1.4-5.4V178L483.4,178.4L483.4,178.4z"/>
			</g>
			<g>
				<path fill="#191919" d="M550.7,220.8L540.6,205c-0.4,0-0.7,0-1.4,0h-6.3v15.9h-5.8v-43.2h11.4c2.9,0,5.6,0.5,7.9,1.6
					c2.3,1.1,4.2,2.5,5.4,4.5c1.3,2,2,4.5,2,7.2s-0.5,5.1-1.8,7.4c-1.3,2.2-3.1,4-5.4,5.1l10.8,17.3H550.7L550.7,220.8z M545.8,197
					c1.3-1.6,2-3.4,2-5.6c0-1.3-0.4-2.5-0.9-3.8s-1.4-2.2-2.7-3.1c-1.3-0.7-2.7-1.3-4.9-1.3h-6.7v16.1h6.3
					C542.1,199.4,544.4,198.6,545.8,197z"/>
				<path fill="#191919" d="M558.5,221.4h-7.9l-10.1-15.9c-0.4,0-0.7,0-1.1,0h-5.8v15.9h-6.9v-44.2h12.1c3.1,0,5.8,0.5,8.1,1.6
					c2.5,1.1,4.3,2.7,5.6,4.9s2,4.7,2,7.6c0,2.7-0.5,5.4-1.8,7.6c-1.1,2.2-2.9,4-5.1,5.1L558.5,221.4z M550.9,220.3h5.4l-10.7-17
					l0.5-0.2c2.3-1.1,4-2.7,5.1-4.9s1.6-4.5,1.6-7c0-2.7-0.7-5.1-1.8-6.9c-1.3-1.8-3.1-3.3-5.2-4.3c-2.2-1.1-4.9-1.6-7.8-1.6h-10.8
					v41.9h4.7v-15.9h6.9c0.7,0,1.1,0,1.3,0h0.4L550.9,220.3z M539,199.9h-6.9v-17.3h7.2c2,0,3.6,0.4,5.1,1.3c1.3,0.9,2.3,2,3.1,3.3
					c0.5,1.3,0.9,2.7,0.9,4c0,2.2-0.7,4.2-2.2,6l0,0C544.6,199,542.2,199.9,539,199.9z M533.4,198.8h5.6c2.9,0,5.1-0.7,6.3-2.2l0,0
					c1.3-1.6,1.8-3.3,1.8-5.2c0-1.3-0.4-2.3-0.7-3.6c-0.5-1.1-1.4-2.2-2.5-2.7c-1.1-0.7-2.7-1.1-4.5-1.1h-6.1v14.8H533.4z"/>
			</g>
			<g>
				<path fill="#191919" d="M589,209.5h-16.6l-4.5,11.4h-5.8l18.8-45h0.4l18.8,45h-6.7L589,209.5z M587,204.6l-6.1-15.7l-6.3,15.7
					H587z"/>
				<path fill="#191919" d="M600.9,221.4H593l-4.5-11.4h-15.9l-4.5,11.4h-6.9l19.3-46h1.1L600.9,221.4z M593.7,220.3h5.4l-18-43.3
					L563,220.3h4.5l4.5-11.4h17.3L593.7,220.3z M587.7,205.1h-14.1l7.2-17.9L587.7,205.1z M575.3,203.9h10.8l-5.4-13.7L575.3,203.9z
					"/>
			</g>
			<g>
				<path fill="#191919" d="M642.3,220.8h-5.8v-19h-22.6v19h-5.8v-43.2h5.8v18.8h22.6v-18.8h5.8V220.8z"/>
				<path fill="#191919" d="M643,221.4h-6.9v-19h-21.7v19h-6.9v-44.2h6.9V196H636v-18.8h6.9L643,221.4L643,221.4z M637.2,220.3h4.7
					v-42.1h-4.7V197h-23.7v-18.8h-4.7v42.1h4.7v-19h23.7V220.3z"/>
			</g>
			<g>
				<path fill="#191919" d="M689,177.9L670,223l-19-45.1h6.9l12.5,31.1l12.1-31.1H689z"/>
				<path fill="#191919" d="M669.9,224.3L650,177.1h8.1l12.1,30.2l11.6-30.2h7.9L669.9,224.3z M651.8,178.4l18.1,43.2l18.1-43.2
					h-5.6l-12.3,32.1l-12.8-32.1H651.8z"/>
			</g>
			<g>
				<path fill="#191919" d="M714.9,209.5h-16.6l-4.5,11.4H688l18.8-45h0.4l18.8,45h-6.7L714.9,209.5z M712.9,204.6l-6.1-15.7
					l-6.3,15.7H712.9z"/>
				<path fill="#191919" d="M726.8,221.4h-7.9l-4.5-11.4h-15.9l-4.5,11.4h-6.9l19.3-46h1.1L726.8,221.4z M719.6,220.3h5.4L706.9,177
					l-18.1,43.3h4.5l4.5-11.4h17.3L719.6,220.3z M713.6,205.1h-14.1l7.2-17.9L713.6,205.1z M701.1,203.9H712l-5.4-13.7L701.1,203.9z
					"/>
			</g>
			<g>
				<path fill="#191919" d="M758.8,177.9v37.6h21.9v5.6H753v-43.2L758.8,177.9L758.8,177.9z"/>
				<path fill="#191919" d="M781.1,221.4h-28.9v-44.2h6.9v37.6H781L781.1,221.4L781.1,221.4L781.1,221.4z M753.5,220.3H780v-4.5
					h-21.9v-37.6h-4.7v42.1H753.5z"/>
			</g>
			<g>
				<path fill="#191919" d="M789.5,188.3c2-3.3,4.7-6.1,7.9-8.1c3.3-2,7-3.1,11-3.1s7.6,1.1,11,3.1c3.3,2,6.1,4.7,8.1,8.1
					c2,3.3,3.1,7,3.1,11s-1.1,7.8-3.1,11c-2,3.3-4.7,6-8.1,7.9c-3.4,2-7,2.9-11,2.9s-7.8-1.1-11-2.9c-3.3-1.8-6-4.5-7.9-7.9
					c-2-3.3-3.1-7-3.1-11.2C786.4,195,787.5,191.8,789.5,188.3z M794.7,207.7c1.4,2.5,3.3,4.5,6,6c2.5,1.4,5.2,2.2,8.1,2.2
					s5.6-0.7,8.1-2.2c2.5-1.4,4.3-3.4,5.8-6c1.4-2.5,2.2-5.2,2.2-8.3s-0.7-5.8-2.2-8.3c-1.4-2.5-3.3-4.5-6-6
					c-2.5-1.4-5.2-2.2-8.1-2.2s-5.6,0.7-8.1,2.2s-4.5,3.4-5.8,6c-1.4,2.5-2.2,5.4-2.2,8.3C792.3,202.4,793.2,205.1,794.7,207.7z"/>
				<path fill="#191919" d="M808.6,221.9c-4.2,0-7.9-1.1-11.4-3.1c-3.4-2-6.3-4.9-8.3-8.1c-2-3.3-3.1-7.2-3.1-11.4
					c0-4,1.1-7.8,3.1-11.2l0,0c2-3.4,4.9-6.3,8.3-8.3c3.4-2,7.2-3.1,11.4-3.1c4,0,7.8,1.1,11.2,3.1s6.3,4.9,8.3,8.3
					s3.1,7.2,3.1,11.2s-1.1,7.9-3.1,11.4c-2,3.4-4.9,6.3-8.3,8.3C816.4,220.8,812.6,221.9,808.6,221.9z M808.6,177.9
					c-4,0-7.4,1.1-10.7,2.9c-3.3,1.8-6,4.5-7.8,7.9l0,0c-1.8,3.3-2.9,6.9-2.9,10.7c0,4,1.1,7.6,2.9,10.8c1.8,3.3,4.5,6,7.8,7.8
					s6.9,2.9,10.8,2.9c3.8,0,7.4-1.1,10.7-2.9s6-4.5,7.9-7.8c1.8-3.3,2.9-6.9,2.9-10.8c0-3.8-1.1-7.4-2.9-10.7c-2-3.3-4.5-6-7.9-7.9
					C815.8,178.8,812.4,177.9,808.6,177.9z M808.6,216.3c-3.1,0-6-0.7-8.5-2.2c-2.5-1.4-4.5-3.6-6.1-6.1l0,0
					c-1.4-2.5-2.2-5.4-2.2-8.5s0.7-6,2.2-8.5c1.4-2.5,3.4-4.9,6-6.3c2.5-1.6,5.4-2.3,8.3-2.3c2.9,0,6,0.7,8.3,2.2
					c2.5,1.6,4.5,3.6,6,6.3c1.4,2.7,2.2,5.4,2.2,8.5s-0.7,6-2.2,8.5c-1.4,2.5-3.4,4.7-6,6.1C814.4,215.6,811.7,216.3,808.6,216.3z
					 M795.1,207.3c1.3,2.5,3.3,4.3,5.6,5.8c2.3,1.4,5.1,2.2,7.9,2.2s5.4-0.7,7.8-2.2c2.3-1.4,4.2-3.3,5.6-5.8c1.4-2.5,2-5.1,2-7.9
					c0-2.9-0.7-5.6-2.2-7.9c-1.3-2.5-3.3-4.5-5.6-5.8c-2.3-1.4-5.1-2.2-7.8-2.2s-5.4,0.7-7.8,2.2c-2.3,1.4-4.2,3.4-5.6,6
					c-1.3,2.5-2,5.1-2,7.9C792.9,202.2,793.8,204.8,795.1,207.3L795.1,207.3z"/>
			</g>
			<g>
				<path fill="#191919" d="M840.6,188.3c2-3.3,4.7-6.1,7.9-8.1c3.3-2,7-3.1,11-3.1s7.6,1.1,11,3.1c3.3,2,6.1,4.7,8.1,8.1
					c2,3.3,3.1,7,3.1,11s-1.1,7.8-3.1,11c-2,3.3-4.7,6-8.1,7.9c-3.4,2-7,2.9-11,2.9s-7.8-1.1-11-2.9s-6-4.5-7.9-7.9
					c-2-3.3-3.1-7-3.1-11.2C837.7,195.4,838.6,191.8,840.6,188.3z M845.8,207.7c1.4,2.5,3.3,4.5,6,6c2.5,1.4,5.2,2.2,8.1,2.2
					s5.6-0.7,8.1-2.2c2.5-1.4,4.3-3.4,5.8-6c1.4-2.5,2.2-5.2,2.2-8.3s-0.7-5.8-2.2-8.3c-1.4-2.5-3.3-4.5-6-6
					c-2.5-1.4-5.2-2.2-8.1-2.2s-5.6,0.7-8.1,2.2c-2.5,1.4-4.5,3.4-5.8,6c-1.4,2.5-2.2,5.4-2.2,8.3
					C843.6,202.2,844.2,205.1,845.8,207.7z"/>
				<path fill="#191919" d="M859.7,221.9c-4.2,0-7.9-1.1-11.4-3.1c-3.4-2-6.3-4.9-8.3-8.1c-2-3.3-3.1-7.2-3.1-11.4
					c0-4,1.1-7.8,3.1-11.2l0,0c2-3.4,4.9-6.3,8.3-8.3c3.4-2,7.2-3.1,11.4-3.1c4,0,7.8,1.1,11.2,3.1s6.3,4.9,8.3,8.3
					c2,3.4,3.1,7.2,3.1,11.2s-1.1,7.9-3.1,11.4c-2,3.4-4.9,6.3-8.3,8.3C867.5,220.8,863.7,221.9,859.7,221.9z M859.7,177.9
					c-4,0-7.4,1.1-10.7,2.9s-6,4.5-7.8,7.9l0,0c-1.8,3.3-2.9,6.9-2.9,10.7c0,4,1.1,7.6,2.9,10.8c1.8,3.3,4.5,6,7.8,7.8
					s6.9,2.9,10.8,2.9c3.8,0,7.4-1.1,10.7-2.9c3.3-1.8,6-4.5,7.9-7.8c1.8-3.3,2.9-6.9,2.9-10.8c0-3.8-1.1-7.4-2.9-10.7
					c-2-3.3-4.5-6-7.9-7.9C867.1,178.8,863.5,177.9,859.7,177.9z M859.7,216.3c-3.1,0-6-0.7-8.5-2.2c-2.5-1.4-4.5-3.6-6.1-6.1l0,0
					c-1.4-2.5-2.2-5.4-2.2-8.5s0.7-6,2.2-8.5c1.4-2.5,3.4-4.9,6-6.3c2.5-1.4,5.4-2.3,8.3-2.3c2.9,0,6,0.7,8.3,2.2
					c2.5,1.6,4.5,3.6,6,6.3c1.4,2.7,2.2,5.4,2.2,8.5s-0.7,6-2.2,8.5c-1.4,2.5-3.4,4.7-6,6.1C865.7,215.6,862.8,216.3,859.7,216.3z
					 M846.2,207.3c1.3,2.5,3.3,4.3,5.6,5.8s5.1,2.2,7.9,2.2s5.4-0.7,7.8-2.2c2.3-1.4,4.2-3.3,5.6-5.8c1.3-2.5,2-5.1,2-7.9
					c0-2.9-0.7-5.6-2.2-7.9c-1.3-2.5-3.3-4.5-5.6-5.8c-2.3-1.4-5.1-2.2-7.8-2.2s-5.4,0.7-7.8,2.2c-2.3,1.4-4.2,3.4-5.6,6
					c-1.4,2.5-2,5.1-2,7.9C844.2,202.2,844.9,204.8,846.2,207.3L846.2,207.3z"/>
			</g>
			<g>
				<path fill="#191919" d="M934.3,176.4v44.4h-5.8v-28l-15.9,22.4h-0.2l-15.5-21.7v27.1h-5.6V176l0,0l21.3,30L934.3,176.4
					L934.3,176.4L934.3,176.4z"/>
				<path fill="#191919" d="M934.8,221.4H928v-26.7L913,216h-0.7l-14.6-20.6v26H891v-45.7h0.9l0.2,0.2l20.8,29.4l21.3-29.6h0.9v0.5
					L934.8,221.4L934.8,221.4z M929.2,220.3h4.7V178L913,207.5L892.2,178v42.3h4.5v-28.4l16.1,22.6l16.4-23.3V220.3L929.2,220.3z"/>
			</g>
			<g>
				<path fill="#191919" d="M952.5,177.9V221h-5.8v-43.2L952.5,177.9L952.5,177.9z"/>
				<path fill="#191919" d="M953.1,221.4h-6.9v-44.2h6.9V221.4z M947.3,220.3h4.7v-42.1h-4.7V220.3z"/>
			</g>
			<g>
				<path fill="#191919" d="M1002.5,177.9v44.6h-0.2l-31.8-32.3l0.2,30.7h-6v-44.4h0.4l31.6,32.5l-0.2-31.2L1002.5,177.9
					L1002.5,177.9z"/>
				<path fill="#191919" d="M1003.1,222.8h-1.1l-0.2-0.2l-30.7-31.2l0.2,29.8h-7v-45.5h1.1l30.9,31.8l-0.2-30.3h6.9L1003.1,222.8
					L1003.1,222.8z M970,188.9l31.8,32.3v-42.8h-4.7l0.2,32l-32-32.9v42.8h4.9L970,188.9z"/>
			</g>
			<g>
				<path fill="#191919" d="M1043,177.9v5.6h-22.2v13.2h19.9v5.6h-19.9v13.4h23.1v5.6H1015V178h28V177.9z"/>
				<path fill="#191919" d="M1044.4,221.4h-30v-44.2h29.1v6.7h-22.2V196h19.9v6.7h-19.9V215h23.1L1044.4,221.4L1044.4,221.4z
					 M1015.4,220.3h27.6v-4.5h-23.1v-14.4h19.9v-4.5h-19.9v-14.3h22.6V178h-27.1V220.3z"/>
			</g>
		</g>
	</g>
	<g>
		<g>
			<g>
				<path fill="#191919" d="M369.1,264v2.2h-18.2v13.2h16.4v2.2h-16.4v13.5h19v2.2h-21.3V264H369.1L369.1,264z"/>
				<path fill="#191919" d="M370.3,297.8h-22.4v-34.3h21.7v3.3h-18.2v12.1h16.4v3.3h-16.4v12.3h19v3.3H370.3z M349.2,296.7h20.2
					v-1.1h-19V281h16.4v-1.1h-16.4v-14.4h18.2v-1.1h-19.5L349.2,296.7L349.2,296.7z"/>
			</g>
			<g>
				<path fill="#191919" d="M390.9,293.6l1.1,1.6c-0.9,0.7-1.8,1.3-3.1,1.6c-1.1,0.4-2.3,0.7-3.4,0.7c-1.8,0-3.6-0.4-5.1-1.3
					c-1.4-0.9-2.7-2-3.4-3.4s-1.3-3.1-1.3-4.9s0.4-3.3,1.3-4.9c0.9-1.4,2.2-2.7,3.6-3.6c1.6-0.9,3.1-1.3,4.9-1.3
					c2.2,0,4,0.7,5.4,1.8c1.6,1.3,2.5,2.9,3.3,5.1l-15.7,6c0.5,1.3,1.6,2.3,2.7,3.3c1.3,0.7,2.7,1.3,4.2,1.3
					C387.5,295.8,389.3,295.1,390.9,293.6z M381.5,281.2c-1.1,0.7-2.2,1.6-2.7,2.7s-1.1,2.5-1.1,4c0,0.7,0.2,1.3,0.2,1.8l13.5-5.4
					c-0.5-1.3-1.4-2.2-2.5-3.1c-1.1-0.7-2.3-1.1-3.6-1.1C384,280.3,382.8,280.4,381.5,281.2z"/>
				<path fill="#191919" d="M385.5,298.1c-2,0-3.8-0.4-5.4-1.3s-2.7-2.2-3.6-3.6c-0.9-1.6-1.3-3.3-1.3-5.2c0-1.8,0.4-3.6,1.4-5.1
					c0.9-1.6,2.2-2.7,3.8-3.8c1.6-0.9,3.3-1.4,5.2-1.4c2.2,0,4.2,0.7,5.8,2s2.7,3.1,3.4,5.4l0.2,0.5l-15.5,6
					c0.5,1.1,1.3,1.8,2.2,2.5c1.1,0.7,2.5,1.1,4,1.1c1.8,0,3.4-0.7,5.1-1.8l0.4-0.4l1.8,2.5l-0.4,0.4c-1.1,0.7-2,1.3-3.3,1.8
					C388,298,386.8,298.1,385.5,298.1z M385.5,278.8c-1.6,0-3.3,0.4-4.7,1.3c-1.4,0.7-2.5,2-3.3,3.3c-0.7,1.4-1.3,2.9-1.3,4.5
					s0.4,3.3,1.1,4.7c0.7,1.3,1.8,2.5,3.3,3.3c1.3,0.7,3.1,1.3,4.9,1.3c1.1,0,2.2-0.2,3.3-0.5c0.9-0.4,1.8-0.7,2.5-1.3l-0.4-0.7
					c-1.6,1.3-3.3,1.8-5.2,1.8c-1.6,0-3.3-0.4-4.5-1.3s-2.3-2-2.9-3.4l-0.2-0.5l15.7-6.1c-0.7-1.8-1.6-3.3-2.9-4.3
					C389.1,279.4,387.5,278.8,385.5,278.8z M377.7,290.4l-0.2-0.5c-0.2-0.5-0.2-1.1-0.2-1.8c0-1.6,0.4-2.9,1.1-4.2
					c0.7-1.3,1.6-2.2,2.9-3.1l0,0c1.3-0.7,2.7-1.1,4.2-1.1c1.6,0,2.9,0.4,4,1.3c1.1,0.7,2,1.8,2.7,3.3l0.2,0.5L377.7,290.4z
					 M381.9,281.7c-1.1,0.7-1.8,1.6-2.5,2.5c-0.5,1.1-0.9,2.3-0.9,3.6c0,0.4,0,0.7,0,1.1l12.3-4.9c-0.5-0.9-1.3-1.6-2-2.2
					c-1.1-0.7-2.2-1.1-3.3-1.1C384.2,280.8,383,281.2,381.9,281.7L381.9,281.7z"/>
			</g>
			<g>
				<path fill="#191919" d="M401.2,297c-1.1-0.4-2-1.1-2.7-1.8l1.1-1.4c0.7,0.7,1.3,1.3,2.2,1.6c0.9,0.4,1.8,0.5,2.7,0.5
					c1.3,0,2.2-0.4,3.1-0.7c0.7-0.4,1.3-1.4,1.3-2.5c0-0.7-0.2-1.4-0.7-2c-0.4-0.4-0.9-0.9-1.6-1.1s-1.4-0.5-2.7-1.1
					c-1.4-0.5-2.5-1.1-3.4-1.8s-1.3-1.8-1.3-3.1c0-1.6,0.5-2.7,1.6-3.6s2.3-1.3,4-1.3c2.2,0,4.2,0.7,5.4,2.2l-1.1,1.6
					c-0.4-0.7-1.1-1.1-1.8-1.3c-0.7-0.2-1.6-0.4-2.3-0.4c-0.9,0-1.8,0.2-2.5,0.7s-1.1,1.3-1.1,2.2s0.4,1.6,1.1,2.2
					c0.7,0.5,1.8,1.1,3.1,1.4c1.6,0.5,3.1,1.3,4,1.8c0.9,0.7,1.3,1.8,1.3,3.3c0,1.6-0.5,3.1-1.6,4.2s-2.7,1.6-4.7,1.6
					C403.5,297.6,402.3,297.4,401.2,297z"/>
				<path fill="#191919" d="M404.6,298.1c-1.3,0-2.5-0.2-3.6-0.7l0,0c-1.3-0.4-2.2-1.1-2.9-2l-0.2-0.4l1.6-2.3l0.4,0.4
					c0.5,0.5,1.3,1.1,2.2,1.4c0.7,0.4,1.6,0.5,2.5,0.5c1.1,0,2-0.2,2.7-0.7c0.7-0.4,1.1-1.1,1.1-2.2c0-0.7-0.2-1.3-0.5-1.6
					c-0.4-0.4-0.7-0.7-1.3-0.9c-0.5-0.2-1.4-0.5-2.7-1.1c-1.6-0.5-2.7-1.3-3.6-2c-0.9-0.9-1.3-2-1.3-3.4c0-1.6,0.5-3.1,1.8-4
					c1.1-1.1,2.7-1.6,4.3-1.6c2.3,0,4.3,0.7,6,2.2l0.4,0.4l-1.6,2.5l-0.4-0.7c-0.4-0.5-0.9-0.9-1.6-1.1s-1.4-0.4-2.2-0.4
					c-0.7,0-1.6,0.2-2.2,0.7c-0.5,0.4-0.9,1.1-0.9,1.6c0,0.7,0.2,1.3,0.7,1.6c0.7,0.4,1.6,0.9,3.1,1.4c1.8,0.5,3.1,1.3,4.2,2
					s1.6,2,1.6,3.6c0,1.8-0.5,3.3-1.8,4.5C408.6,297.6,406.8,298.1,404.6,298.1z M401.4,296.5c1.1,0.4,2.2,0.5,3.3,0.5
					c1.8,0,3.3-0.4,4.3-1.4c1.1-0.9,1.4-2.2,1.4-3.6c0-1.3-0.4-2.2-1.1-2.7c-0.9-0.7-2.2-1.3-3.8-1.8c-1.4-0.5-2.5-1.1-3.3-1.6
					c-0.9-0.5-1.3-1.4-1.3-2.7c0-1.1,0.4-2,1.4-2.7c0.9-0.5,1.8-0.9,2.9-0.9c0.9,0,1.6,0.2,2.5,0.5c0.5,0.2,1.1,0.5,1.6,1.1l0.4-0.5
					c-1.3-1.1-2.7-1.6-4.9-1.6c-1.6,0-2.7,0.4-3.6,1.3c-0.9,0.7-1.3,1.8-1.3,3.3c0,1.1,0.4,2,1.1,2.7s1.8,1.3,3.3,1.8
					c1.3,0.4,2.2,0.7,2.7,1.1c0.7,0.2,1.3,0.7,1.6,1.3c0.5,0.5,0.7,1.3,0.7,2.3c0,1.3-0.4,2.3-1.4,3.1c-0.9,0.5-2,0.9-3.3,0.9
					c-1.1,0-2-0.2-2.9-0.7c-0.7-0.4-1.3-0.7-2-1.3l-0.4,0.5C399.9,295.8,400.5,296.1,401.4,296.5L401.4,296.5z"/>
			</g>
			<g>
				<path fill="#191919" d="M421.6,270.9v8.3h5.6v1.8h-5.6v16.4h-2.2V281h-4v-1.8h4v-8.3L421.6,270.9L421.6,270.9z"/>
				<path fill="#191919" d="M422.1,297.8h-3.3v-16.3h-4v-2.9h4v-8.3h3.3v8.3h5.6v2.9h-5.6V297.8z M420,296.7h1.1v-16.3h5.6v-0.7
					h-5.6v-8.3H420v8.3h-4v0.7h4V296.7z"/>
			</g>
			<g>
				<path fill="#191919" d="M433,271c0.4-0.4,0.7-0.4,1.1-0.4s0.7,0.2,1.1,0.4c0.4,0.4,0.4,0.7,0.4,1.1s-0.2,0.9-0.4,1.1
					c-0.4,0.4-0.7,0.4-1.1,0.4s-0.7-0.2-1.1-0.4c-0.4-0.4-0.4-0.7-0.4-1.1C432.4,271.8,432.6,271.4,433,271z M435,279v18.4h-2.2V279
					H435z"/>
				<path fill="#191919" d="M435.5,297.8h-3.3v-19.5h3.3V297.8z M433.5,296.7h1.1v-17.3h-1.1V296.7z M434.1,274.3
					c-0.5,0-1.1-0.2-1.6-0.7s-0.7-0.9-0.7-1.6c0-0.5,0.2-1.1,0.7-1.6l0,0c0.9-0.7,2.2-0.7,3.1,0c0.4,0.4,0.7,0.9,0.7,1.6
					s-0.2,1.1-0.7,1.6C435.1,274.1,434.6,274.3,434.1,274.3z M433.2,271.6c-0.2,0.2-0.4,0.4-0.4,0.7c0,0.4,0.2,0.5,0.4,0.7
					c0.4,0.4,1.1,0.4,1.6,0c0.2-0.2,0.4-0.4,0.4-0.7c0-0.4-0.2-0.5-0.4-0.7C434.4,271,433.7,271,433.2,271.6L433.2,271.6z"/>
			</g>
			<g>
				<path fill="#191919" d="M463.1,279.7c1.6-0.9,3.1-1.3,4.5-1.3l-0.2,2.2c-1.3,0-2.7,0.4-3.8,0.9c-1.1,0.5-2.2,1.4-2.7,2.5
					c-0.7,1.1-1.1,2.2-1.1,3.6v9.8h-2.2V279h1.8l0.2,4.3C460.6,281.9,461.7,280.6,463.1,279.7z"/>
				<path fill="#191919" d="M460.6,297.8h-3.3v-19.5h3.1l0.2,3.1c0.7-0.9,1.4-1.6,2.5-2.2l0,0c1.6-0.9,3.3-1.4,4.9-1.4h0.5l-0.2,3.3
					h-0.5c-1.3,0-2.5,0.4-3.6,0.9s-1.8,1.3-2.5,2.3c-0.5,1.1-0.9,2.2-0.9,3.3L460.6,297.8L460.6,297.8z M458.4,296.7h1.1v-9.2
					c0-1.3,0.4-2.7,1.1-4c0.7-1.1,1.6-2.2,3.1-2.7c1.1-0.5,2.2-0.9,3.6-1.1v-1.1c-1.3,0.2-2.5,0.5-3.6,1.3l0,0
					c-1.4,0.7-2.5,1.8-3.1,3.3l-1.1,2.2l-0.2-6.3h-0.9V296.7L458.4,296.7z"/>
			</g>
			<g>
				<path fill="#191919" d="M491.5,279v18.4h-2.2v-4c-0.7,1.3-1.8,2.2-3.3,3.1c-1.6,0.7-3.1,1.3-4.9,1.3s-3.3-0.4-4.9-1.3
					c-1.4-0.7-2.5-1.8-3.3-3.3c-0.7-1.4-1.3-3.1-1.3-5.1s0.4-3.8,1.3-5.2c0.9-1.4,2-2.5,3.6-3.3c1.6-0.7,3.3-1.1,5.1-1.1
					c1.6,0,2.9,0.4,4.3,1.3s2.5,1.8,3.1,3.3l0.2-4L491.5,279L491.5,279L491.5,279z M487,293.8c1.4-1.3,2.2-2.9,2.3-4.9v-2.7
					c-0.4-1.6-1.3-3.1-2.7-4.3c-1.4-1.1-3.1-1.8-4.9-1.8c-1.4,0-2.7,0.4-4,1.1s-2.2,1.6-2.7,2.7c-0.7,1.1-1.1,2.5-1.1,4
					c0,1.4,0.4,2.7,1.1,4s1.6,2.2,2.7,2.7c1.1,0.7,2.5,1.1,3.8,1.1C483.7,295.8,485.5,295.1,487,293.8z"/>
				<path fill="#191919" d="M481.2,298.1c-1.8,0-3.6-0.4-5.1-1.3c-1.6-0.9-2.7-2-3.6-3.6s-1.3-3.3-1.3-5.2c0-2.2,0.4-4,1.3-5.4
					c0.9-1.6,2.2-2.7,3.8-3.6c1.6-0.7,3.4-1.3,5.4-1.3c1.6,0,3.1,0.4,4.5,1.3c0.9,0.5,1.8,1.3,2.3,2.2l0.2-2.9h3.1v19.5h-3.3v-2.7
					c-0.7,0.7-1.4,1.3-2.5,1.8C484.8,297.8,483.2,298.1,481.2,298.1z M481.9,278.8c-1.8,0-3.4,0.4-4.9,1.1c-1.4,0.7-2.5,1.8-3.3,3.1
					s-1.3,3.1-1.3,4.9s0.4,3.3,1.1,4.7c0.7,1.3,1.8,2.5,3.3,3.3c1.4,0.7,2.7,1.1,4.5,1.1s3.1-0.4,4.5-1.1c1.3-0.7,2.5-1.6,3.1-2.7
					l1.1-1.6v5.4h1.1v-17.3h-0.9l-0.4,5.4l-0.9-1.8c-0.7-1.3-1.6-2.2-2.9-3.1C484.6,279.4,483.2,278.8,481.9,278.8z M481.7,296.3
					c-1.4,0-2.9-0.4-4.2-1.1c-1.3-0.7-2.2-1.8-3.1-3.1c-0.7-1.3-1.1-2.7-1.1-4.2c0-1.6,0.4-3.1,1.1-4.3s1.6-2.2,3.1-2.9
					c1.3-0.7,2.7-1.1,4.2-1.1c2,0,3.8,0.7,5.2,1.8c1.4,1.3,2.5,2.7,2.9,4.7v0.2v2.7c-0.2,2.2-1.1,4-2.5,5.4l0,0
					C485.7,295.6,483.9,296.3,481.7,296.3z M481.7,280.8c-1.3,0-2.5,0.4-3.6,0.9s-1.8,1.4-2.5,2.5s-0.9,2.3-0.9,3.8
					c0,1.3,0.4,2.5,1.1,3.6s1.6,2,2.5,2.7c1.1,0.7,2.2,1.1,3.6,1.1c1.8,0,3.6-0.5,4.9-1.8s2-2.7,2.2-4.5v-2.5
					c-0.4-1.6-1.3-2.9-2.5-4C484.8,281.3,483.4,280.8,481.7,280.8z"/>
			</g>
			<g>
				<path fill="#191919" d="M513.9,279.9c1.1,1.1,1.6,2.3,1.6,4v13.4h-2.2v-12.8c-0.2-1.3-0.4-2.2-1.1-3.1c-0.7-0.7-1.8-1.1-3.1-1.3
					c-1.3,0-2.3,0.4-3.4,0.9s-1.8,1.4-2.5,2.5s-1.1,2.2-1.1,3.6v9.9H500v-35.6h2.2v21.1c0.7-1.3,1.6-2.2,3.1-3.1
					c1.3-0.7,2.9-1.3,4.5-1.3C511.4,278.4,512.8,278.8,513.9,279.9z"/>
				<path fill="#191919" d="M516,297.8h-3.3v-13.4c0-1.1-0.4-1.8-1.1-2.5s-1.4-1.1-2.7-1.1c-1.1,0-2.2,0.4-3.1,0.9
					c-1.1,0.5-1.8,1.3-2.3,2.3s-0.9,2.2-0.9,3.3v10.5h-3.3v-36.7h3.3V281c0.7-0.7,1.3-1.3,2.2-1.8c1.4-0.9,3.1-1.3,4.9-1.3
					s3.3,0.5,4.5,1.6l0,0c1.1,1.1,1.8,2.5,1.8,4.3V297.8z M513.9,296.7h1.1v-12.8c0-1.4-0.5-2.7-1.6-3.6s-2.2-1.3-3.8-1.3
					s-3.1,0.4-4.3,1.1c-1.3,0.7-2.2,1.6-2.9,2.9l-1.1,1.8V262h-0.9v34.7h1.1v-9.4c0-1.4,0.4-2.7,1.1-4s1.6-2.2,2.7-2.7
					c1.1-0.7,2.5-1.1,3.6-1.1c1.4,0,2.7,0.5,3.6,1.3c0.7,0.9,1.3,2,1.3,3.3L513.9,296.7z"/>
			</g>
			<g>
				<path fill="#191919" d="M539.7,279l-9.2,19h-0.4l-9.2-19h2.5l6.9,15.2L537,279H539.7z"/>
				<path fill="#191919" d="M531,298.5h-1l-9.8-20.2h3.8l6.5,14.3l6.3-14.4h3.6L531,298.5z M522,279.5l8.5,17.5l8.3-17.5h-1.3
					l-7,15.9l-7.4-15.9H522z"/>
			</g>
			<g>
				<path fill="#191919" d="M562.5,279v18.4h-2.2v-4c-0.7,1.3-1.8,2.2-3.3,3.1c-1.6,0.7-3.1,1.3-4.9,1.3s-3.3-0.4-4.9-1.3
					c-1.4-0.7-2.5-1.8-3.3-3.3c-0.7-1.4-1.3-3.1-1.3-5.1s0.4-3.8,1.3-5.2c0.9-1.4,2-2.5,3.6-3.3c1.6-0.7,3.3-1.1,5.1-1.1
					c1.4,0,2.9,0.4,4.3,1.3s2.5,1.8,3.1,3.3l0.2-4h2.2V279H562.5z M557.9,293.8c1.4-1.3,2.2-2.9,2.3-4.9v-2.7
					c-0.4-1.6-1.3-3.1-2.7-4.3c-1.4-1.1-3.1-1.8-4.9-1.8c-1.4,0-2.7,0.4-4,1.1c-1.1,0.7-2.2,1.6-2.7,2.7c-0.7,1.1-1.1,2.5-1.1,4
					c0,1.4,0.4,2.7,1.1,4c0.7,1.3,1.6,2.2,2.7,2.7c1.1,0.7,2.5,1.1,3.8,1.1C554.7,295.8,556.5,295.1,557.9,293.8z"/>
				<path fill="#191919" d="M552.2,298.1c-1.8,0-3.6-0.4-5.1-1.3s-2.7-2-3.6-3.6s-1.3-3.3-1.3-5.2c0-2.2,0.4-4,1.3-5.4
					c0.9-1.4,2.2-2.7,3.8-3.6c1.6-0.7,3.4-1.3,5.4-1.3c1.6,0,3.1,0.4,4.5,1.3c0.9,0.5,1.8,1.3,2.5,2.2l0.2-2.9h3.1v19.5h-3.3v-2.7
					c-0.7,0.7-1.4,1.3-2.5,1.8C555.6,297.8,554,298.1,552.2,298.1z M552.7,278.8c-1.8,0-3.4,0.4-4.9,1.1c-1.4,0.7-2.5,1.8-3.3,3.1
					c-0.7,1.3-1.3,3.1-1.3,4.9s0.4,3.3,1.1,4.7c0.7,1.3,1.8,2.5,3.1,3.3c1.3,0.7,2.9,1.1,4.5,1.1s3.1-0.4,4.5-1.1
					c1.3-0.7,2.5-1.6,3.1-2.7l1.1-1.6v5.4h1.1v-17.3h-0.9l-0.4,5.4l-0.9-1.8c-0.7-1.3-1.6-2.2-3.1-3.1
					C555.6,279.4,554.2,278.8,552.7,278.8z M552.7,296.3c-1.4,0-2.9-0.4-4.2-1.1s-2.2-1.8-3.1-3.1c-0.7-1.3-1.1-2.7-1.1-4.2
					c0-1.6,0.4-3.1,1.1-4.3s1.6-2.2,3.1-2.9c1.3-0.7,2.5-1.1,4.2-1.1c2,0,3.8,0.7,5.2,1.8c1.6,1.3,2.5,2.7,2.9,4.7v0.2v2.7
					c-0.2,2.2-1.1,4-2.5,5.4l0,0C556.9,295.6,554.9,296.3,552.7,296.3z M552.5,280.8c-1.3,0-2.5,0.4-3.6,0.9s-1.8,1.4-2.5,2.5
					s-0.9,2.3-0.9,3.8c0,1.3,0.4,2.5,1.1,3.6c0.7,1.1,1.4,2,2.5,2.7s2.2,1.1,3.6,1.1c1.8,0,3.6-0.5,4.9-1.8c1.3-1.3,2-2.7,2.2-4.5
					v-2.5c-0.4-1.6-1.3-2.9-2.5-4C556,281.3,554.3,280.8,552.5,280.8z"/>
			</g>
			<g>
				<path fill="#191919" d="M573.1,261.7v35.6h-2.2v-35.6H573.1z"/>
				<path fill="#191919" d="M573.7,297.8h-3.3v-36.7h3.3V297.8z M571.3,296.7h1.1v-34.5h-1.1V296.7z"/>
			</g>
			<g>
				<path fill="#191919" d="M599.3,279v18.4h-2.2v-4c-0.7,1.3-1.8,2.2-3.3,3.1c-1.6,0.7-3.1,1.3-4.9,1.3s-3.3-0.4-4.9-1.3
					c-1.4-0.7-2.5-1.8-3.3-3.3c-0.7-1.4-1.3-3.1-1.3-5.1s0.4-3.8,1.3-5.2c0.9-1.4,2-2.5,3.6-3.3c1.6-0.7,3.3-1.1,5.1-1.1
					c1.4,0,2.9,0.4,4.3,1.3c1.4,0.9,2.5,1.8,3.1,3.3l0.2-4h2.2V279H599.3z M594.8,293.8c1.4-1.3,2.2-2.9,2.3-4.9v-2.7
					c-0.4-1.6-1.3-3.1-2.7-4.3c-1.4-1.1-3.1-1.8-4.9-1.8c-1.4,0-2.7,0.4-4,1.1c-1.1,0.7-2.2,1.6-2.7,2.7c-0.7,1.1-1.1,2.5-1.1,4
					c0,1.4,0.4,2.7,1.1,4c0.7,1.3,1.6,2.2,2.7,2.7c1.1,0.7,2.5,1.1,3.8,1.1C591.5,295.8,593.3,295.1,594.8,293.8z"/>
				<path fill="#191919" d="M589,298.1c-1.8,0-3.6-0.4-5.1-1.3s-2.7-2-3.6-3.6c-0.9-1.6-1.3-3.3-1.3-5.2c0-2.2,0.4-4,1.3-5.4
					c0.9-1.4,2.2-2.7,3.8-3.6c1.6-0.7,3.4-1.3,5.4-1.3c1.6,0,3.1,0.4,4.5,1.3c0.9,0.5,1.8,1.3,2.5,2.2l0.2-2.9h3.1v19.5h-3.4v-2.7
					c-0.7,0.7-1.4,1.3-2.5,1.8C592.4,297.8,590.8,298.1,589,298.1z M589.5,278.8c-1.8,0-3.4,0.4-4.9,1.1c-1.4,0.7-2.5,1.8-3.3,3.1
					c-0.7,1.3-1.3,3.1-1.3,4.9s0.4,3.3,1.1,4.7c0.7,1.3,1.8,2.5,3.1,3.3c1.3,0.7,2.7,1.1,4.5,1.1c1.6,0,3.1-0.4,4.5-1.1
					c1.3-0.7,2.5-1.6,3.1-2.7l1.1-1.6v5.4h1.1v-17.3h-0.9l-0.4,5.4l-0.9-1.8c-0.7-1.3-1.6-2.2-3.1-3.1
					C592.3,279.4,591,278.8,589.5,278.8z M589.5,296.3c-1.4,0-2.9-0.4-4.2-1.1s-2.2-1.8-3.1-3.1c-0.7-1.3-1.1-2.7-1.1-4.2
					c0-1.6,0.4-3.1,1.1-4.3c0.7-1.3,1.6-2.2,3.1-2.9c1.3-0.7,2.7-1.1,4.2-1.1c2,0,3.8,0.7,5.2,1.8c1.4,1.3,2.5,2.7,2.9,4.7v0.2v2.7
					c-0.2,2.2-1.1,4-2.5,5.4l0,0C593.5,295.6,591.5,296.3,589.5,296.3z M589.4,280.8c-1.3,0-2.5,0.4-3.6,0.9s-1.8,1.4-2.5,2.5
					s-0.9,2.3-0.9,3.8c0,1.3,0.4,2.5,1.1,3.6c0.7,1.1,1.6,2,2.5,2.7c1.1,0.7,2.2,1.1,3.6,1.1c1.8,0,3.6-0.5,4.9-1.8
					c1.3-1.3,2-2.7,2.2-4.5v-2.5c-0.4-1.6-1.3-2.9-2.5-4C592.6,281.3,591,280.8,589.4,280.8z"/>
			</g>
			<g>
				<path fill="#191919" d="M623.1,279v18.4h-2l-0.2-4c-0.5,1.3-1.6,2.3-3.1,3.3c-1.4,0.7-3.1,1.3-4.5,1.3c-1.6,0-3.1-0.5-4.2-1.6
					c-1.1-1.1-1.6-2.3-1.6-4V279h2.2v12.6c0.2,1.3,0.4,2.2,1.1,3.1c0.7,0.7,1.8,1.1,3.1,1.3c1.3,0,2.3-0.4,3.3-0.9
					c1.1-0.5,1.8-1.4,2.5-2.5s0.9-2.3,0.9-3.6v-9.8L623.1,279L623.1,279z"/>
				<path fill="#191919" d="M613.4,298.3c-1.8,0-3.3-0.5-4.5-1.6c-1.1-1.1-1.8-2.5-1.8-4.3v-13.9h3.3v13.2c0,1.1,0.4,2,1.1,2.7
					c0.5,0.7,1.6,1.1,2.7,1.1c1.1,0,2.2-0.4,3.1-0.9c1.1-0.5,1.8-1.3,2.3-2.3c0.5-1.1,0.9-2.2,0.9-3.3v-10.3h3.3v19.5h-3.1l-0.2-2.7
					c-0.5,0.7-1.3,1.3-2.2,1.8C616.8,298,615,298.3,613.4,298.3z M608.1,279.5v12.8c0,1.4,0.5,2.7,1.4,3.6s2.2,1.3,3.6,1.3
					c1.6,0,3.1-0.4,4.3-1.1c1.3-0.7,2.2-1.8,2.7-2.9l1.1-2.2l0.2,5.6h0.9v-17.3h-1.1v9.2c0,1.4-0.4,2.7-1.1,4
					c-0.7,1.3-1.6,2.2-2.7,2.7c-1.1,0.7-2.3,1.1-3.6,1.1c-1.6-0.2-2.7-0.5-3.6-1.4c-0.9-0.9-1.3-2-1.3-3.3v-12.3L608.1,279.5
					L608.1,279.5z"/>
			</g>
			<g>
				<path fill="#191919" d="M633.6,261.7v35.6h-2.2v-35.6H633.6z"/>
				<path fill="#191919" d="M634.3,297.8H631v-36.7h3.3V297.8z M632,296.7h1.1v-34.5H632V296.7z"/>
			</g>
			<g>
				<path fill="#191919" d="M661.1,298.5c-0.9,1.8-2.2,3.1-3.6,4c-1.6,0.9-3.3,1.4-5.1,1.6v-2.2c2.3-0.2,4.2-1.1,5.6-2.7
					c1.4-1.6,2.2-4,2.2-7V264h2.3v28.4C662.3,294.7,662.1,296.7,661.1,298.5z"/>
				<path fill="#191919" d="M651.8,304.6v-3.3h0.5c2.2-0.2,4-1.1,5.4-2.5c1.3-1.6,2-4,2-6.7v-28.7h3.4v28.9c0,2.5-0.4,4.7-1.4,6.5
					c-0.9,1.8-2.2,3.3-4,4.3c-1.6,1.1-3.4,1.6-5.4,1.6L651.8,304.6L651.8,304.6z M652.9,302.3v1.1c1.6-0.2,3.1-0.5,4.3-1.4
					c1.4-0.9,2.5-2.2,3.4-4l0,0c0.9-1.6,1.3-3.6,1.3-6v-27.6h-1.3V292c0,3.1-0.7,5.6-2.3,7.4C657.1,301,655.1,302.1,652.9,302.3z"/>
			</g>
			<g>
				<path fill="#191919" d="M670.8,294.5c0.4-0.4,0.7-0.4,1.1-0.4c0.4,0,0.7,0.2,1.1,0.4c0.4,0.2,0.4,0.7,0.4,1.1s-0.2,0.7-0.4,1.1
					c-0.4,0.4-0.7,0.4-1.1,0.4c-0.4,0-0.7-0.2-1.1-0.4c-0.4-0.4-0.4-0.7-0.4-1.1C670.3,295.2,670.4,294.9,670.8,294.5z"/>
				<path fill="#191919" d="M671.7,297.8c-0.5,0-1.1-0.2-1.4-0.5c-0.4-0.4-0.7-0.9-0.7-1.6c0-0.5,0.2-1.1,0.7-1.6
					c0.9-0.9,2.2-0.9,3.1,0c0.4,0.4,0.7,0.9,0.7,1.6c0,0.5-0.2,1.1-0.7,1.6C672.8,297.6,672.3,297.8,671.7,297.8z M671.7,294.7
					c-0.2,0-0.4,0.2-0.7,0.4l0,0c-0.2,0.2-0.4,0.4-0.4,0.7c0,0.4,0.2,0.5,0.4,0.7c0.4,0.4,1.1,0.4,1.4,0c0.2-0.2,0.4-0.4,0.4-0.7
					c0-0.4-0.2-0.5-0.4-0.7C672.3,294.7,672.1,294.7,671.7,294.7z"/>
			</g>
			<g>
				<path fill="#191919" d="M715.8,296.9c-2,0.5-3.8,0.7-5.4,0.7c-3.4,0-6.5-0.7-9-2.2c-2.5-1.4-4.5-3.4-6-6
					c-1.4-2.5-2.2-5.4-2.2-8.5c0-3.3,0.7-6.3,2.3-8.8c1.6-2.7,3.6-4.7,6.3-6.3c2.5-1.4,5.4-2.2,8.5-2.2c3.3,0,6.5,0.7,9.2,2.5
					l-0.9,2.2c-1.1-0.7-2.5-1.3-4-1.6c-1.4-0.4-2.9-0.5-4.2-0.5c-2.7,0-5.4,0.7-7.6,2c-2.2,1.3-4.2,3.1-5.4,5.4
					c-1.3,2.2-2,4.9-2,7.8c0,2.7,0.5,5.2,1.8,7.4c1.3,2.2,3.1,4,5.2,5.2c2.2,1.3,4.9,1.8,7.8,1.8c1.3,0,2.7-0.2,4.2-0.4
					c1.4-0.4,2.7-0.7,3.6-1.3v-9.2h-7.6v-2.2h9.8v12.5C719.2,295.6,717.8,296.3,715.8,296.9z"/>
				<path fill="#191919" d="M710.2,298.1c-3.4,0-6.5-0.7-9.2-2.2c-2.7-1.4-4.9-3.6-6.3-6.3c-1.4-2.5-2.2-5.6-2.2-8.8
					c0-3.3,0.7-6.5,2.3-9.2s3.6-4.9,6.5-6.5c2.7-1.6,5.6-2.3,8.8-2.3c3.4,0,6.5,0.9,9.4,2.5l0.4,0.2l-1.3,3.1l-0.5-0.4
					c-1.1-0.7-2.3-1.1-3.6-1.6c-1.3-0.4-2.7-0.5-4.2-0.5c-2.7,0-5.1,0.7-7.4,1.8c-2.2,1.3-4,3.1-5.1,5.1c-1.3,2.2-1.8,4.7-1.8,7.4
					s0.5,5.1,1.8,7.2c1.3,2.2,2.9,3.8,5.1,5.1c3.1,1.8,7,2.3,11.4,1.3c1.3-0.4,2.3-0.7,3.3-1.1v-8.3H710v-3.3h10.8V295l-0.2,0.2
					c-1.1,0.7-2.7,1.4-4.9,2l0,0C714,298,712,298.1,710.2,298.1z M710.2,264.2c-3.1,0-5.8,0.7-8.3,2.2c-2.5,1.4-4.5,3.4-6,6
					c-1.4,2.5-2.2,5.4-2.2,8.7c0,3.1,0.7,5.8,2,8.3s3.3,4.3,5.8,5.8c2.5,1.4,5.4,2.2,8.7,2.2c1.6,0,3.4-0.2,5.4-0.7l0,0
					c1.8-0.4,3.1-1.1,4.2-1.6V283h-8.7v1.1h7.6v9.9l-0.4,0.2c-1.1,0.5-2.3,1.1-3.8,1.4c-4.7,1.1-8.8,0.4-12.3-1.4
					c-2.3-1.3-4.2-3.1-5.4-5.4s-1.8-4.9-1.8-7.8s0.7-5.6,2-7.9s3.3-4.2,5.6-5.6s5.1-2,7.9-2c1.4,0,2.9,0.2,4.3,0.7
					c1.3,0.4,2.5,0.7,3.4,1.3l0.4-1.1C716,264.9,713.1,264.2,710.2,264.2z"/>
			</g>
			<g>
				<path fill="#191919" d="M727.7,294.5c0.4-0.4,0.7-0.4,1.1-0.4s0.7,0.2,1.1,0.4c0.4,0.4,0.4,0.7,0.4,1.1s-0.2,0.7-0.4,1.1
					s-0.7,0.4-1.1,0.4s-0.7-0.2-1.1-0.4c-0.4-0.4-0.4-0.7-0.4-1.1C727.2,295.2,727.3,294.9,727.7,294.5z"/>
				<path fill="#191919" d="M728.8,297.8c-0.5,0-1.1-0.2-1.4-0.5c-0.4-0.4-0.7-0.9-0.7-1.6c0-0.5,0.2-1.1,0.7-1.6l0,0
					c0.9-0.9,2.2-0.9,3.1,0c0.4,0.4,0.7,0.9,0.7,1.6c0,0.5-0.2,1.1-0.7,1.6C729.7,297.6,729.3,297.8,728.8,297.8z M728.1,294.9
					c-0.2,0.2-0.4,0.4-0.4,0.7c0,0.4,0.2,0.5,0.4,0.7c0.4,0.4,1.1,0.4,1.4,0c0.2-0.2,0.4-0.4,0.4-0.7c0-0.4-0.2-0.5-0.4-0.7
					C729,294.5,728.4,294.5,728.1,294.9z"/>
			</g>
			<g>
				<path fill="#191919" d="M776.8,297.2h-2.3v-15.7h-20v15.7h-2.3V264h2.3v15.5h20V264h2.3V297.2z"/>
				<path fill="#191919" d="M777.4,297.8H774v-15.7h-19v15.7h-3.4v-34.3h3.4V279h19v-15.5h3.4V297.8z M775,296.7h1.3v-32.1H775v15.5
					h-21.1v-15.5h-1.3v32.1h1.3V281H775V296.7z"/>
			</g>
			<g>
				<path fill="#191919" d="M799.6,293.6l1.1,1.6c-0.9,0.7-1.8,1.3-3.1,1.6c-1.1,0.4-2.3,0.7-3.4,0.7c-1.8,0-3.6-0.4-5.1-1.3
					c-1.4-0.9-2.7-2-3.4-3.4s-1.3-3.1-1.3-4.9s0.4-3.3,1.3-4.9c0.9-1.6,2.2-2.7,3.6-3.6c1.4-0.9,3.1-1.3,4.9-1.3
					c2.2,0,4,0.7,5.4,1.8c1.4,1.3,2.5,2.9,3.3,5.1l-15.7,6c0.5,1.3,1.6,2.3,2.7,3.3c1.3,0.7,2.7,1.3,4.2,1.3
					C796.3,295.8,798.1,295.1,799.6,293.6z M790.4,281.2c-1.1,0.7-2.2,1.6-2.7,2.7c-0.7,1.1-1.1,2.5-1.1,4c0,0.7,0.2,1.3,0.2,1.8
					l13.5-5.4c-0.5-1.3-1.4-2.2-2.5-3.1c-1.1-0.7-2.3-1.1-3.6-1.1C792.9,280.3,791.4,280.4,790.4,281.2z"/>
				<path fill="#191919" d="M794.3,298.1c-2,0-3.8-0.4-5.4-1.3s-2.7-2.2-3.6-3.6c-0.9-1.6-1.3-3.3-1.3-5.1s0.4-3.6,1.4-5.1
					c0.9-1.6,2.2-2.7,3.8-3.8c1.6-0.9,3.3-1.4,5.2-1.4c2.2,0,4.2,0.7,5.8,2s2.7,3.1,3.4,5.4l0.2,0.5l-15.5,6
					c0.5,1.1,1.3,1.8,2.2,2.5c1.1,0.7,2.5,1.1,4,1.1c1.8,0,3.6-0.7,5.1-1.8l0.4-0.4l1.8,2.5l-0.4,0.4c-0.9,0.7-2,1.3-3.3,1.8
					C796.7,298,795.6,298.1,794.3,298.1z M794.3,278.8c-1.6,0-3.3,0.4-4.7,1.3c-1.4,0.7-2.5,2-3.3,3.3c-0.7,1.4-1.3,2.9-1.3,4.5
					s0.4,3.3,1.1,4.7c0.7,1.4,1.8,2.5,3.3,3.3c1.4,0.7,3.1,1.3,4.9,1.3c1.1,0,2.2-0.2,3.3-0.5c0.9-0.4,1.8-0.7,2.5-1.3l-0.4-0.7
					c-1.6,1.3-3.3,1.8-5.2,1.8c-1.6,0-3.3-0.4-4.5-1.3s-2.3-2-3.1-3.4l-0.2-0.5l15.7-6.1c-0.7-1.8-1.6-3.3-2.9-4.3
					C797.9,279.4,796.3,278.8,794.3,278.8z M786.6,290.4l-0.2-0.5c-0.2-0.5-0.2-1.1-0.2-1.8c0-1.6,0.4-2.9,1.1-4.2
					c0.7-1.3,1.6-2.2,2.9-3.1l0,0c1.3-0.7,2.5-1.1,4.2-1.1s2.9,0.4,4,1.3c1.1,0.7,2,1.8,2.7,3.3l0.2,0.5L786.6,290.4z M790.5,281.7
					c-1.1,0.7-1.8,1.6-2.5,2.5c-0.5,1.1-0.9,2.3-0.9,3.6c0,0.4,0,0.7,0,1.1l12.3-4.9c-0.5-0.9-1.3-1.6-2-2.2
					c-1.1-0.7-2.2-1.1-3.3-1.1C792.9,280.8,791.8,281.2,790.5,281.7z"/>
			</g>
			<g>
				<path fill="#191919" d="M814.6,279.7c1.4-0.9,3.1-1.3,4.5-1.3l-0.2,2.2c-1.3,0-2.7,0.4-3.8,0.9s-2.2,1.4-2.7,2.5
					c-0.7,1.1-1.1,2.2-1.1,3.6v9.8h-2.2V279h1.8l0.2,4.3C811.8,281.9,812.9,280.6,814.6,279.7z"/>
				<path fill="#191919" d="M811.8,297.8h-3.3v-19.5h3.1l0.2,3.1c0.7-0.9,1.4-1.6,2.5-2.2l0,0c1.6-0.9,3.3-1.4,4.9-1.4h0.5l-0.2,3.3
					H819c-1.3,0-2.5,0.4-3.6,0.9s-1.8,1.3-2.5,2.3c-0.5,1.1-0.9,2.2-0.9,3.3L811.8,297.8L811.8,297.8z M809.7,296.7h1.1v-9.2
					c0-1.3,0.4-2.7,1.1-4c0.7-1.1,1.6-2.2,3.1-2.7c1.1-0.5,2.2-0.9,3.6-1.1v-1.1c-1.3,0.2-2.5,0.5-3.6,1.3l0,0
					c-1.4,0.7-2.5,1.8-3.1,3.3l-1.1,2.2l-0.2-6.3h-0.9L809.7,296.7L809.7,296.7z"/>
			</g>
			<g>
				<path fill="#191919" d="M842.5,261.7v35.6h-2.3v-3.8c-0.9,1.3-2,2.2-3.4,3.1c-1.4,0.7-3.1,1.1-4.9,1.1c-1.6,0-3.3-0.4-4.7-1.3
					c-1.4-0.7-2.5-2-3.3-3.4c-0.7-1.4-1.3-3.1-1.3-5.1c0-1.8,0.4-3.6,1.3-5.1c0.9-1.4,2-2.5,3.4-3.3c1.4-0.7,3.1-1.1,4.9-1.1
					c1.6,0,3.1,0.4,4.7,1.1c1.4,0.7,2.7,1.8,3.4,3.1v-20.9L842.5,261.7L842.5,261.7z M837.9,293.8c1.4-1.3,2.2-3.1,2.5-5.1v-2.3
					c-0.4-1.8-1.3-3.3-2.7-4.5c-1.4-1.3-3.1-1.8-5.1-1.8c-1.4,0-2.7,0.4-4,1.1c-1.1,0.7-2.2,1.6-2.7,2.7c-0.7,1.1-1.1,2.5-1.1,4
					c0,1.4,0.4,2.7,1.1,4c0.7,1.3,1.6,2.2,2.7,2.7c1.1,0.7,2.5,1.1,3.8,1.1C834.6,295.8,836.4,295.1,837.9,293.8z"/>
				<path fill="#191919" d="M831.9,298.1c-1.8,0-3.4-0.4-5.1-1.3c-1.6-0.9-2.7-2.2-3.6-3.6c-0.9-1.6-1.3-3.3-1.3-5.2
					c0-2,0.4-3.8,1.3-5.4c0.9-1.6,2.2-2.7,3.6-3.6c1.6-0.7,3.3-1.3,5.1-1.3c1.6,0,3.3,0.4,4.9,1.3c1.1,0.5,1.8,1.3,2.7,2v-19.9h3.3
					v36.7h-3.3v-2.7c-0.7,0.7-1.6,1.4-2.7,2C835.5,297.8,833.9,298.1,831.9,298.1z M832.1,278.8c-1.6,0-3.3,0.4-4.5,1.1
					c-1.3,0.7-2.5,1.8-3.3,3.1s-1.3,3.1-1.3,4.9c0,1.6,0.4,3.3,1.1,4.7s1.8,2.5,3.1,3.3c1.3,0.7,2.7,1.1,4.5,1.1s3.1-0.4,4.5-1.1
					c1.3-0.7,2.5-1.6,3.3-2.9l1.1-1.6v5.1h1.1V262h-1.1v22.4l-1.1-1.6c-0.7-1.3-1.8-2.2-3.3-2.9
					C835.1,279.4,833.7,278.8,832.1,278.8z M832.4,296.3c-1.4,0-2.9-0.4-4.2-1.1s-2.2-1.8-3.1-3.1c-0.7-1.3-1.1-2.7-1.1-4.2
					c0-1.4,0.4-3.1,1.1-4.3c0.7-1.3,1.8-2.2,3.1-2.9c1.3-0.7,2.7-1.1,4.2-1.1c2,0,3.8,0.7,5.4,1.8c1.6,1.3,2.5,2.9,2.9,4.9v2.5
					c-0.2,2.2-1.1,4-2.5,5.4C836.8,295.6,834.6,296.3,832.4,296.3z M832.4,280.8c-1.3,0-2.5,0.4-3.6,0.9s-1.8,1.4-2.5,2.5
					s-1.1,2.3-1.1,3.8c0,1.3,0.4,2.5,1.1,3.6c0.7,1.1,1.6,2,2.5,2.7c1.1,0.7,2.2,1.1,3.6,1.1c2,0,3.6-0.5,4.9-1.8
					c1.3-1.3,2.2-2.7,2.2-4.5v-2.3c-0.4-1.6-1.1-2.9-2.5-4C835.9,281.3,834.2,280.8,832.4,280.8z"/>
			</g>
			<g>
				<path fill="#191919" d="M864.2,293.6l1.1,1.6c-0.9,0.7-1.8,1.3-3.1,1.6c-1.1,0.4-2.3,0.7-3.4,0.7c-1.8,0-3.6-0.4-5.1-1.3
					s-2.7-2-3.4-3.4s-1.3-3.1-1.3-4.9s0.4-3.3,1.3-4.9c0.9-1.6,2.2-2.7,3.6-3.6s3.1-1.3,4.9-1.3c2.2,0,4,0.7,5.4,1.8
					c1.4,1.3,2.5,2.9,3.3,5.1l-15.7,6c0.5,1.3,1.6,2.3,2.7,3.3c1.3,0.7,2.7,1.3,4.2,1.3C860.8,295.8,862.6,295.1,864.2,293.6z
					 M855,281.2c-1.1,0.7-2.2,1.6-2.7,2.7c-0.7,1.1-1.1,2.5-1.1,4c0,0.7,0.2,1.3,0.2,1.8l13.5-5.4c-0.5-1.3-1.4-2.2-2.5-3.1
					c-1.1-0.7-2.3-1.1-3.6-1.1C857.4,280.3,856.1,280.4,855,281.2z"/>
				<path fill="#191919" d="M858.8,298.1c-2,0-3.8-0.4-5.4-1.3s-2.7-2.2-3.6-3.6c-0.9-1.6-1.3-3.3-1.3-5.2c0-1.8,0.4-3.6,1.4-5.1
					c1.1-1.6,2.2-2.7,3.8-3.8c1.6-0.9,3.3-1.4,5.2-1.4c2.2,0,4.2,0.7,5.8,2s2.7,3.1,3.4,5.4l0.2,0.5l-15.5,6
					c0.5,1.1,1.3,1.8,2.2,2.5c1.1,0.7,2.5,1.1,4,1.1c1.8,0,3.6-0.7,5.1-1.8l0.4-0.4l1.8,2.5l-0.4,0.4c-0.9,0.7-2,1.3-3.3,1.8
					C861.3,298,859.9,298.1,858.8,298.1z M858.8,278.8c-1.6,0-3.3,0.4-4.7,1.3c-1.4,0.7-2.5,2-3.3,3.3c-0.7,1.4-1.3,2.9-1.3,4.5
					s0.4,3.3,1.1,4.7c0.7,1.4,1.8,2.5,3.3,3.3c1.4,0.7,3.1,1.3,4.9,1.3c1.1,0,2.2-0.2,3.3-0.5c0.9-0.4,1.8-0.7,2.5-1.3l-0.4-0.7
					c-1.6,1.3-3.3,1.8-5.2,1.8c-1.6,0-3.3-0.4-4.5-1.3c-1.3-0.9-2.3-2-3.1-3.4l-0.2-0.5l15.7-6.1c-0.7-1.8-1.6-3.3-2.9-4.3
					C862.6,279.4,860.8,278.8,858.8,278.8z M851,290.4l-0.2-0.5c-0.2-0.5-0.2-1.1-0.2-1.8c0-1.6,0.4-2.9,1.1-4.2
					c0.7-1.3,1.6-2.2,2.9-3.1l0,0c1.3-0.7,2.5-1.1,4.2-1.1s2.9,0.4,4,1.3c1.1,0.7,2,1.8,2.7,3.3l0.2,0.5L851,290.4z M855.2,281.7
					c-1.1,0.7-1.8,1.6-2.5,2.5c-0.5,1.1-0.9,2.3-0.9,3.6c0,0.4,0,0.7,0,1.1L864,284c-0.5-0.9-1.3-1.6-2-2.2
					c-1.1-0.7-2.2-1.1-3.3-1.1C857.4,280.8,856.3,281.2,855.2,281.7z"/>
			</g>
			<g>
				<path fill="#191919" d="M879,279.7c1.4-0.9,3.1-1.3,4.5-1.3l-0.2,2.2c-1.3,0-2.7,0.4-3.8,0.9s-2.2,1.4-2.7,2.5
					c-0.7,1.1-1.1,2.2-1.1,3.6v9.8h-2.2V279h1.8l0.2,4.3C876.5,281.9,877.6,280.6,879,279.7z"/>
				<path fill="#191919" d="M876.5,297.8h-3.3v-19.5h3.1l0.2,3.1c0.7-0.9,1.4-1.6,2.5-2.2l0,0c1.6-0.9,3.3-1.4,4.9-1.4h0.5l-0.2,3.3
					h-0.5c-1.3,0-2.5,0.4-3.6,0.9s-1.8,1.3-2.5,2.3c-0.5,1.1-0.9,2.2-0.9,3.3L876.5,297.8L876.5,297.8z M874.1,296.7h1.1v-9.2
					c0-1.3,0.4-2.7,1.1-4c0.7-1.1,1.6-2.2,3.1-2.7c1.1-0.5,2.2-0.9,3.6-1.1v-1.1c-1.3,0.2-2.5,0.5-3.6,1.3l0,0
					c-1.4,0.7-2.5,1.8-3.1,3.3l-1.1,2.2l-0.2-6.3h-0.9L874.1,296.7L874.1,296.7z"/>
			</g>
			<g>
				<path fill="#191919" d="M889.9,271c0.4-0.4,0.7-0.4,1.1-0.4c0.4,0,0.7,0.2,1.1,0.4c0.4,0.4,0.4,0.7,0.4,1.1s-0.2,0.9-0.4,1.1
					c-0.4,0.4-0.7,0.4-1.1,0.4c-0.4,0-0.7-0.2-1.1-0.4c-0.4-0.2-0.4-0.7-0.4-1.1C889.1,271.8,889.5,271.4,889.9,271z M891.8,279
					v18.4h-2.2V279H891.8z"/>
				<path fill="#191919" d="M892.4,297.8h-3.3v-19.5h3.3V297.8z M890.2,296.7h1.1v-17.3h-1.1V296.7z M890.9,274.3
					c-0.5,0-1.1-0.2-1.6-0.7c-0.4-0.4-0.7-0.9-0.7-1.6c0-0.5,0.2-1.1,0.7-1.6l0,0c0.9-0.7,2.2-0.7,3.1,0c0.4,0.4,0.7,0.9,0.7,1.6
					s-0.2,1.1-0.7,1.6C892,274.1,891.5,274.3,890.9,274.3z M890,271.6c-0.2,0.2-0.4,0.4-0.4,0.7c0,0.4,0.2,0.5,0.4,0.7
					c0.4,0.4,1.1,0.4,1.6,0c0.2-0.2,0.4-0.4,0.4-0.7c0-0.4-0.2-0.5-0.4-0.7C891.3,271,890.6,271,890,271.6L890,271.6z"/>
			</g>
			<g>
				<path fill="#191919" d="M920,287.1l-3.1,2.7v7.4h-2.2v-35.6h2.2v26l10.3-9l1.3,1.1l-7,6.3l8.1,11.4h-2.7L920,287.1z"/>
				<path fill="#191919" d="M930.7,297.8h-4l-6.9-9.8l-2.5,2.2v7.8H914v-36.7h3.3v25.3l9.8-8.5l2.2,1.8l-7,6.3L930.7,297.8z
					 M927.4,296.7h1.3l-7.8-10.8l6.9-6.1l-0.5-0.4l-10.8,9.4v-26.5h-1.1v34.5h1.1v-7.2l3.8-3.3L927.4,296.7z"/>
			</g>
			<g>
				<path fill="#191919" d="M934.5,283.1c0.9-1.4,2-2.7,3.6-3.6s3.1-1.3,5.1-1.3s3.4,0.4,5.1,1.3c1.6,0.9,2.7,2,3.6,3.6
					c0.9,1.4,1.3,3.1,1.3,4.9s-0.4,3.4-1.3,4.9c-0.9,1.4-2,2.7-3.6,3.4c-1.4,0.9-3.1,1.3-5.1,1.3s-3.6-0.4-5.1-1.3
					c-1.4-0.7-2.7-2-3.4-3.4s-1.3-3.1-1.3-5.1C933,286.2,933.6,284.6,934.5,283.1z M936.3,291.8c0.7,1.3,1.6,2.2,2.7,2.7
					c1.3,0.7,2.5,1.1,3.8,1.1s2.7-0.4,3.8-1.1s2.2-1.6,2.7-2.7c0.7-1.3,1.1-2.5,1.1-4c0-1.4-0.4-2.7-1.1-4c-0.7-1.3-1.6-2.2-2.7-2.7
					c-1.3-0.7-2.5-1.1-3.8-1.1c-1.4,0-2.7,0.4-4,1.1c-1.1,0.7-2,1.6-2.7,2.9s-1.1,2.5-1.1,3.8C935.4,289.5,935.5,290.7,936.3,291.8z
					"/>
				<path fill="#191919" d="M943,298.1c-1.8,0-3.6-0.4-5.2-1.3s-2.7-2.2-3.6-3.6c-0.9-1.6-1.3-3.3-1.3-5.2c0-2,0.4-3.6,1.3-5.1l0,0
					c0.9-1.6,2.2-2.7,3.8-3.6s3.3-1.3,5.2-1.3s3.6,0.4,5.2,1.3s2.7,2.2,3.6,3.8c0.9,1.6,1.3,3.3,1.3,5.1s-0.4,3.6-1.3,5.1
					c-0.9,1.6-2.2,2.7-3.6,3.6C946.6,297.8,944.8,298.1,943,298.1z M934.8,283.3c-0.7,1.4-1.3,2.9-1.3,4.5c0,1.8,0.4,3.3,1.3,4.7
					c0.7,1.3,1.8,2.5,3.3,3.3c1.4,0.7,3.1,1.1,4.9,1.1s3.3-0.4,4.7-1.3c1.4-0.7,2.5-1.8,3.3-3.3c0.7-1.4,1.3-2.9,1.3-4.5
					s-0.4-3.3-1.3-4.5c-0.7-1.4-1.8-2.5-3.3-3.3c-1.4-0.7-3.1-1.3-4.7-1.3c-1.6,0-3.3,0.4-4.7,1.3
					C936.8,280.8,935.5,281.9,934.8,283.3L934.8,283.3z M943,296.3c-1.4,0-2.9-0.4-4.2-1.1s-2.2-1.8-3.1-3.1
					c-0.7-1.3-1.1-2.7-1.1-4.2c0-1.4,0.4-2.7,1.1-4.2c0.7-1.4,1.6-2.3,2.9-3.1c1.3-0.7,2.7-1.3,4.2-1.3c1.4,0,2.9,0.4,4.2,1.1
					s2.2,1.8,3.1,3.1c0.7,1.3,1.1,2.7,1.1,4.2c0,1.4-0.4,2.9-1.1,4.2c-0.7,1.3-1.6,2.2-3.1,3.1C945.7,296,944.4,296.3,943,296.3z
					 M943,280.8c-1.3,0-2.5,0.4-3.6,1.1s-1.8,1.6-2.5,2.7c-0.5,1.1-0.9,2.3-0.9,3.6c0,1.3,0.4,2.5,0.9,3.6l0,0
					c0.7,1.1,1.4,2,2.5,2.7c2.2,1.3,4.9,1.3,7,0c1.1-0.7,1.8-1.6,2.5-2.7s0.9-2.3,0.9-3.6c0-1.3-0.4-2.5-0.9-3.6
					c-0.7-1.1-1.4-2-2.5-2.7C945.3,281.2,944,280.8,943,280.8z"/>
			</g>
			<g>
				<path fill="#191919" d="M977.4,279v18.6c0,2.5-0.7,4.5-2.5,6.3c-1.6,1.6-4.2,2.5-7.4,2.5c-1.6,0-3.1-0.4-4.5-0.9
					c-1.3-0.5-2.7-1.6-4.2-2.9l1.3-1.6c1.3,1.3,2.5,2.2,3.6,2.5c1.1,0.4,2.3,0.7,3.6,0.7c2.7,0,4.7-0.5,6-1.8s1.8-2.9,1.8-4.9V293
					c-0.7,1.3-2,2.5-3.4,3.3c-1.4,0.7-3.1,1.3-4.9,1.3c-1.6,0-3.3-0.4-4.7-1.3s-2.5-2-3.4-3.4s-1.3-3.1-1.3-4.9s0.4-3.4,1.3-5.1
					c0.9-1.6,2.2-2.7,3.6-3.4s3.1-1.3,5.1-1.3c1.6,0,3.1,0.4,4.5,1.3c1.4,0.7,2.5,1.8,3.3,3.3l0.2-3.8L977.4,279L977.4,279z
					 M971.1,294.9c1.1-0.5,2.2-1.4,2.7-2.5c0.7-1.1,1.1-2.2,1.3-3.3v-2.7c-0.4-1.8-1.3-3.3-2.7-4.3c-1.4-1.1-3.1-1.6-5.1-1.6
					c-1.4,0-2.7,0.4-4,1.1c-1.1,0.7-2.2,1.6-2.7,2.7c-0.7,1.1-1.1,2.5-1.1,4c0,1.4,0.4,2.7,1.1,4c0.7,1.3,1.6,2.2,2.7,2.7
					c1.3,0.7,2.5,1.1,4,1.1C968.8,295.8,969.9,295.4,971.1,294.9z"/>
				<path fill="#191919" d="M967.3,306.8c-1.6,0-3.3-0.4-4.7-0.9s-2.9-1.6-4.3-3.1l-0.4-0.4l2-2.3l0.4,0.4c1.3,1.1,2.3,2,3.4,2.5
					c1.1,0.4,2.2,0.7,3.3,0.7c2.5,0,4.3-0.5,5.4-1.6c1.1-1.1,1.6-2.7,1.8-4.5v-2.5c-0.7,0.7-1.6,1.4-2.5,2c-1.6,0.9-3.3,1.3-5.1,1.3
					s-3.4-0.4-5.1-1.3s-2.7-2.2-3.6-3.6c-0.9-1.6-1.3-3.3-1.3-5.1s0.4-3.6,1.4-5.2c1.1-1.6,2.2-2.7,3.8-3.6s3.3-1.3,5.2-1.3
					c1.6,0,3.3,0.4,4.9,1.3c1.1,0.5,1.8,1.3,2.5,2l0.2-2.7h3.1V298c0,2.7-0.9,4.9-2.7,6.5C973.5,305.9,970.9,306.8,967.3,306.8z
					 M959.6,302.5c1.3,1.1,2.5,1.8,3.6,2.5c1.3,0.5,2.7,0.7,4.2,0.7c3.3,0,5.6-0.7,7-2.3c1.4-1.6,2.3-3.4,2.3-5.8v-18.1h-0.9
					l-0.2,5.2l-0.9-1.6c-0.7-1.3-1.6-2.2-3.1-2.9c-1.3-0.7-2.7-1.1-4.3-1.1s-3.3,0.4-4.7,1.3c-1.4,0.7-2.5,1.8-3.3,3.3
					c-0.7,1.3-1.3,2.9-1.3,4.7c0,1.6,0.4,3.3,1.3,4.5c0.7,1.3,1.8,2.5,3.3,3.3c1.3,0.7,2.7,1.3,4.5,1.3c1.6,0,3.3-0.4,4.5-1.1
					c1.4-0.7,2.5-1.8,3.3-3.1l1.1-1.8l-0.2,6.3c-0.2,2.2-0.7,4-2.2,5.4c-1.3,1.3-3.4,2-6.3,2c-1.3,0-2.5-0.2-3.6-0.7
					c-1.1-0.4-2.2-1.3-3.3-2.2L959.6,302.5z M967.3,296.3c-1.4,0-2.9-0.4-4.2-1.1s-2.2-1.8-3.1-3.1c-0.7-1.3-1.1-2.7-1.1-4.2
					c0-1.4,0.4-3.1,1.1-4.3c0.7-1.3,1.6-2.2,3.1-3.1c1.3-0.7,2.7-1.1,4.2-1.1c2,0,3.8,0.5,5.4,1.8c1.6,1.3,2.5,2.7,3.1,4.7v0.2v2.7
					c-0.2,1.3-0.5,2.5-1.3,3.6c-0.7,1.1-1.8,2-3.1,2.7l0,0C970.2,296,968.8,296.3,967.3,296.3z M967.3,280.8c-1.3,0-2.5,0.4-3.6,0.9
					s-2,1.4-2.5,2.5c-0.7,1.1-0.9,2.3-0.9,3.8c0,1.3,0.4,2.5,1.1,3.6c0.7,1.1,1.6,2,2.5,2.7c2.2,1.3,4.9,1.3,7,0.2l0,0
					c1.1-0.5,1.8-1.3,2.5-2.3c0.7-1.1,1.1-2,1.1-3.1v-2.7c-0.4-1.6-1.3-3.1-2.5-4C970.8,281.3,969.1,280.8,967.3,280.8z"/>
			</g>
			<g>
				<path fill="#191919" d="M1001.3,279v18.4h-2.2l-0.2-4c-0.5,1.3-1.6,2.3-3.1,3.3c-1.4,0.7-3.1,1.3-4.5,1.3
					c-1.6,0-3.1-0.5-4.2-1.6c-1.1-1.1-1.6-2.3-1.6-4V279h2.2v12.6c0.2,1.3,0.4,2.2,1.1,3.1c0.7,0.7,1.8,1.1,3.1,1.3
					c1.3,0,2.3-0.4,3.3-0.9c0.9-0.5,1.8-1.4,2.5-2.5s0.9-2.3,0.9-3.6v-9.8L1001.3,279L1001.3,279z"/>
				<path fill="#191919" d="M991.5,298.3c-1.8,0-3.3-0.5-4.5-1.6c-1.1-1.1-1.8-2.5-1.8-4.3v-13.9h3.3v13.2c0,1.1,0.4,2,1.1,2.7
					c0.5,0.7,1.6,1.1,2.7,1.1c1.1,0,2.2-0.4,3.1-0.9c1.1-0.5,1.8-1.3,2.3-2.3c0.5-1.1,0.9-2.2,0.9-3.3v-10.3h3.3v19.5h-3.1l-0.2-2.7
					c-0.5,0.7-1.3,1.3-2.2,1.8C994.8,298,993.2,298.3,991.5,298.3z M986.3,279.5v12.8c0,1.4,0.5,2.7,1.4,3.6s2.2,1.3,3.6,1.3
					c1.6,0,3.1-0.4,4.3-1.1c1.3-0.7,2.2-1.8,2.7-2.9l1.1-2.2l0.2,5.6h0.9v-17.3h-1.1v9.2c0,1.4-0.4,2.7-1.1,4
					c-0.7,1.3-1.6,2.2-2.7,2.7c-1.1,0.7-2.3,1.1-3.6,1.1c-1.6-0.2-2.7-0.5-3.6-1.4c-0.7-0.9-1.3-2-1.3-3.3v-12.3L986.3,279.5
					L986.3,279.5z"/>
			</g>
			<g>
				<path fill="#191919" d="M1010.5,297c-1.1-0.4-2-1.1-2.7-1.8l1.1-1.4c0.7,0.7,1.3,1.3,2.2,1.6c0.9,0.4,1.8,0.5,2.7,0.5
					c1.3,0,2.2-0.4,3.1-0.7c0.7-0.5,1.3-1.4,1.3-2.5c0-0.7-0.2-1.4-0.7-2c-0.4-0.5-0.9-0.9-1.4-1.1s-1.4-0.5-2.7-1.1
					c-1.4-0.5-2.5-1.1-3.4-1.8c-0.9-0.7-1.3-1.8-1.3-3.1c0-1.6,0.5-2.7,1.6-3.6c1.1-1.1,2.3-1.3,4-1.3c2.2,0,4.2,0.7,5.4,2.2
					l-1.1,1.6c-0.4-0.7-1.1-1.1-1.8-1.3c-0.7-0.2-1.6-0.4-2.3-0.4c-0.9,0-1.8,0.2-2.5,0.7s-1.1,1.3-1.1,2.2s0.4,1.6,1.1,2.2
					c0.7,0.5,1.8,1.1,3.1,1.4c1.6,0.5,3.1,1.3,4,1.8c0.9,0.7,1.3,1.8,1.3,3.3c0,1.6-0.5,3.1-1.6,4.2s-2.7,1.6-4.7,1.6
					C1012.7,297.6,1011.6,297.4,1010.5,297z"/>
				<path fill="#191919" d="M1013.9,298.1c-1.3,0-2.5-0.2-3.6-0.7l0,0c-1.3-0.4-2.2-1.1-2.9-2l-0.2-0.4l1.6-2.3l0.4,0.4
					c0.5,0.5,1.3,1.1,2.2,1.4c0.7,0.4,1.6,0.5,2.5,0.5c1.1,0,2-0.2,2.7-0.7s1.1-1.1,1.1-2.2c0-0.7-0.2-1.3-0.5-1.6
					c-0.4-0.4-0.7-0.7-1.3-0.9c-0.5-0.2-1.4-0.5-2.7-1.1c-1.6-0.5-2.7-1.3-3.6-2c-0.9-0.9-1.3-2-1.3-3.4c0-1.6,0.5-3.1,1.8-4
					c1.1-1.1,2.5-1.6,4.3-1.6c2.5,0,4.3,0.7,6,2.2l0.4,0.4l-1.6,2.5l-0.4-0.7c-0.4-0.5-0.9-0.9-1.6-1.1c-0.7-0.2-1.4-0.4-2.2-0.4
					c-0.7,0-1.6,0.2-2.2,0.7c-0.5,0.4-0.9,1.1-0.9,1.6c0,0.7,0.2,1.3,0.7,1.6c0.7,0.4,1.6,0.9,3.1,1.4c1.8,0.5,3.1,1.3,4.2,2
					c1.1,0.7,1.6,2,1.6,3.6c0,1.8-0.5,3.3-1.8,4.5C1017.7,297.6,1016.1,298.1,1013.9,298.1z M1008.5,295.1c0.5,0.5,1.3,1.1,2.2,1.4
					l0,0c1.1,0.4,2.2,0.5,3.3,0.5c1.8,0,3.3-0.4,4.2-1.4c1.1-0.9,1.4-2.2,1.4-3.6c0-1.3-0.4-2.2-1.1-2.7c-0.9-0.7-2.2-1.3-3.8-1.8
					c-1.4-0.5-2.5-1.1-3.3-1.6c-0.9-0.5-1.3-1.4-1.3-2.7c0-1.1,0.4-2,1.4-2.7c0.9-0.5,1.8-0.9,2.9-0.9c0.9,0,1.6,0.2,2.5,0.5
					c0.5,0.2,1.1,0.5,1.6,1.1l0.4-0.5c-1.3-1.1-2.7-1.6-4.9-1.6c-1.4,0-2.7,0.4-3.6,1.3c-0.9,0.7-1.3,1.8-1.3,3.3
					c0,1.1,0.4,2,1.1,2.7c0.7,0.7,1.8,1.3,3.3,1.8c1.3,0.4,2.2,0.7,2.7,1.1c0.7,0.2,1.3,0.7,1.6,1.3c0.5,0.5,0.7,1.3,0.7,2.3
					c0,1.3-0.4,2.3-1.4,3.1c-0.9,0.5-2,0.9-3.3,0.9c-1.1,0-2-0.2-3.1-0.7c-0.7-0.4-1.3-0.7-2-1.3L1008.5,295.1z"/>
			</g>
		</g>
		<g>
			<g>
				<line fill="none" x1="320.1" y1="245.4" x2="1045.9" y2="245.9"/>
			</g>
			<g>
				<rect x="320.1" y="243.6" fill="#191919" width="725.6" height="4.2"/>
			</g>
		</g>
		<g>
			<g>
				<line fill="none" x1="320.1" y1="320.2" x2="1045.9" y2="321.1"/>
			</g>
			<g>
				<rect x="320.3" y="318.7" fill="#191919" width="725.6" height="4.2"/>
			</g>
		</g>
	</g>
	<g id="Layer_3">
		<g id="g10" transform="matrix(1.25,0,0,-1.25,0,336.6125)">
			<g id="g12" transform="scale(0.1,0.1)">
				<g id="path14">
					<path fill="#2765B2" d="M5310.7-1414.8h-116.3v176.4h116.3v-20.9h-92.8v-48.4h92.8v-20.8h-92.8v-65.6h92.8V-1414.8"/>
				</g>
				<g id="path16">
					<path fill="#2765B2" d="M5419.6-1306.6h-1.3c-3.3,0.7-6.5,1.3-9.8,1.6c-3.1,0.4-6.9,0.5-11.2,0.5c-6.9,0-13.5-1.6-19.9-4.5
						c-6.5-3.1-12.6-7-18.4-11.7v-94.1h-22.2v132.4h22.2v-19.5c8.8,7,16.6,12.1,23.3,15.2c6.9,3.1,13.7,4.5,20.8,4.5
						c4,0,6.7-0.2,8.5-0.4c1.8-0.2,4.3-0.5,7.8-1.1L5419.6-1306.6"/>
				</g>
				<g id="path18">
					<path fill="#2765B2" d="M5517.3-1382.2v36.8c-6.9-0.4-14.8-1.1-24-1.8s-16.4-1.8-21.9-3.4c-6.5-1.8-11.6-4.7-15.5-8.5
						c-4-3.8-6-9.2-6-15.9c0-7.6,2.3-13.2,6.9-17.2s11.6-5.8,20.9-5.8c7.8,0,15,1.6,21.5,4.5
						C5505.7-1390.2,5511.9-1386.4,5517.3-1382.2z M5539.5-1414.8h-22.2v14.1c-2-1.3-4.7-3.3-7.9-5.6c-3.3-2.5-6.7-4.3-9.8-5.8
						c-3.6-1.8-7.9-3.3-12.8-4.5c-4.9-1.3-10.5-1.8-17-1.8c-11.9,0-22,4-30.3,11.7c-8.3,7.9-12.5,17.9-12.5,30.3
						c0,9.9,2.2,18.1,6.5,24.4s10.5,11.2,18.4,14.6c7.9,3.6,17.7,6,29.1,7.2s23.3,2.2,36.5,2.9v3.4c0,5.1-0.9,9.2-2.7,12.6
						c-1.8,3.3-4.3,6-7.8,7.8c-3.1,1.8-7,3.1-11.4,3.6c-4.5,0.7-9,1.1-13.9,1.1c-6,0-12.3-0.7-19.5-2.3c-7.2-1.6-14.6-3.8-22.2-6.7
						h-1.3v22.6c4.3,1.3,10.7,2.5,18.8,4c8.3,1.4,16.4,2.2,24.2,2.2c9.4,0,17.5-0.7,24.4-2.3c6.9-1.6,12.8-4.2,17.9-7.9
						c5.1-3.6,8.8-8.3,11.4-14.1c2.5-5.8,4-12.8,4-21.5L5539.5-1414.8"/>
				</g>
				<g id="path20">
					<path fill="#2765B2" d="M5668.4-1376.6c0-12.1-5.1-22-15-29.8s-23.7-11.6-41-11.6c-9.8,0-18.8,1.3-26.9,3.4
						c-8.3,2.3-15,4.9-20.6,7.8v25.1h1.3c7-5.4,15-9.4,23.5-12.6c8.5-3.1,17-4.7,24.7-4.7c9.8,0,17.5,1.6,23.1,4.9s8.3,8.1,8.3,15
						c0,5.2-1.6,9.2-4.5,11.7c-3.1,2.7-8.8,5.1-17.3,6.9c-3.1,0.7-7.2,1.6-12.3,2.5c-5.1,1.1-9.8,2-13.9,3.1
						c-11.6,3.1-19.9,7.6-24.7,13.5c-4.9,6-7.2,13.2-7.2,22c0,5.4,1.1,10.7,3.3,15.3c2.2,4.7,5.6,9.2,10.3,12.8
						c4.5,3.6,9.9,6.7,17,8.8c6.9,2.2,14.4,3.3,22.9,3.3c7.9,0,15.9-1.1,24-2.9s14.8-4.3,20.2-7v-23.8h-1.3
						c-5.6,4.2-12.6,7.8-20.8,10.7c-8.1,2.9-16.1,4.3-24,4.3c-8.1,0-15-1.6-20.6-4.7s-8.5-7.8-8.5-13.9c0-5.4,1.6-9.6,5.1-12.3
						c3.3-2.7,8.7-5.1,16.1-6.9c4.2-1.1,8.7-1.8,13.7-2.9c5.1-1.1,9.4-1.8,12.8-2.5c10.3-2.3,18.4-6.5,24-12.3
						C5665.7-1359.3,5668.4-1366.9,5668.4-1376.6"/>
				</g>
				<g id="path22">
					<path fill="#2765B2" d="M5885.5-1414.8h-22.2v75.3c0,5.6-0.2,11.2-0.7,16.4c-0.5,5.2-1.6,9.6-3.3,12.6c-1.8,3.4-4.5,6-7.8,7.8
						s-8.3,2.5-14.6,2.5s-12.5-1.6-18.8-4.7s-12.5-7-18.8-11.9c0.2-1.8,0.4-4,0.5-6.3c0.2-2.5,0.2-4.9,0.2-7v-84.7h-22.2v75.3
						c0,6-0.2,11.4-0.7,16.6s-1.6,9.4-3.3,12.6c-1.8,3.4-4.5,6-7.8,7.8s-8.3,2.5-14.6,2.5c-6.1,0-12.3-1.6-18.4-4.5
						c-6.1-3.1-12.3-6.9-18.4-11.4v-98.8h-22.4v132.4h22.2v-14.6c7,5.8,13.9,10.3,20.8,13.5s14.3,4.9,22.2,4.9
						c9,0,16.6-1.8,22.9-5.6c6.3-3.8,11-9,14.1-15.9c9,7.6,17.3,13,24.6,16.4c7.4,3.3,15.3,5.1,23.8,5.1c14.6,0,25.3-4.5,32.1-13.2
						c6.9-8.8,10.3-21.1,10.3-37v-86.1"/>
				</g>
				<g id="path24">
					<path fill="#2765B2" d="M6025.8-1414.8h-22.2v14.6c-7.6-6-14.6-10.5-21.7-13.7c-6.9-3.1-14.4-4.9-22.8-4.9
						c-13.9,0-24.7,4.2-32.5,12.6c-7.8,8.5-11.6,20.9-11.6,37.4v86h22.2v-75.3c0-6.7,0.4-12.5,1.1-17.3c0.7-4.9,2-8.8,4-12.3
						c2.2-3.4,4.9-6,8.3-7.6c3.3-1.6,8.3-2.3,14.8-2.3c5.8,0,12.1,1.6,19,4.5c6.9,3.1,13.2,6.9,19.1,11.4v98.8h22.2L6025.8-1414.8"
						/>
				</g>
				<g id="path26">
					<path fill="#2765B2" d="M6156-1376.6c0-12.1-5.1-22-15-29.8s-23.7-11.6-41-11.6c-9.8,0-18.8,1.3-26.9,3.4
						c-8.3,2.3-15,4.9-20.6,7.8v25.1h1.3c7-5.4,15-9.4,23.5-12.6c8.5-3.1,17-4.7,24.7-4.7c9.8,0,17.5,1.6,23.1,4.9s8.3,8.1,8.3,15
						c0,5.2-1.6,9.2-4.5,11.7c-3.1,2.7-8.8,5.1-17.3,6.9c-3.1,0.7-7.2,1.6-12.3,2.5c-5.1,1.1-9.8,2-13.9,3.1
						c-11.6,3.1-19.9,7.6-24.7,13.5c-4.9,6-7.2,13.2-7.2,22c0,5.4,1.1,10.7,3.3,15.3c2.2,4.7,5.6,9.2,10.3,12.8
						c4.5,3.6,9.9,6.7,17,8.8c6.9,2.2,14.4,3.3,22.9,3.3c7.9,0,15.9-1.1,24-2.9s14.8-4.3,20.2-7v-23.8h-1.3
						c-5.6,4.2-12.6,7.8-20.8,10.7s-16.1,4.3-24,4.3c-8.1,0-15-1.6-20.6-4.7s-8.5-7.8-8.5-13.9c0-5.4,1.6-9.6,5.1-12.3
						c3.3-2.7,8.7-5.1,16.1-6.9c4.2-1.1,8.7-1.8,13.7-2.9c5.1-1.1,9.4-1.8,12.8-2.5c10.3-2.3,18.4-6.5,24-12.3
						C6153.1-1359.3,6156-1366.9,6156-1376.6"/>
				</g>
				<g id="path28">
					<path fill="#2765B2" d="M6342.5-1347H6278v-64.6h-19.7v64.6h-64.5v19h64.5v64.5h19.7v-64.5h64.5V-1347"/>
				</g>
				<g id="path30">
					<path fill="#2765B2" d="M4591.4-1414.8h529.5v353h-529.5V-1414.8L4591.4-1414.8z"/>
				</g>
				<g id="path32">
					<path fill="#F9E419" d="M4856.2-1100.9l4.3-13.5l14.3,0.2l-11.6-8.3l4.5-13.5l-11.4,8.5l-11.6-8.5l4.5,13.5l-11.6,8.3l14.3-0.2
						L4856.2-1100.9"/>
				</g>
				<g id="path34">
					<path fill="#F9E419" d="M4797.3-1116.8l4.3-13.5l14.3,0.2l-11.6-8.3l4.5-13.5l-11.4,8.5l-11.6-8.5l4.5,13.5l-11.6,8.3l14.3-0.2
						L4797.3-1116.8"/>
				</g>
				<g id="path36">
					<path fill="#F9E419" d="M4754.3-1159.8l4.3-13.5l14.3,0.2l-11.6-8.3l4.5-13.5l-11.4,8.5l-11.6-8.5l4.5,13.5l-11.6,8.3l14.3-0.2
						L4754.3-1159.8"/>
				</g>
				<g id="path38">
					<path fill="#F9E419" d="M4738.4-1218.6l4.3-13.5l14.3,0.2l-11.6-8.3l4.5-13.5l-11.4,8.5l-11.6-8.5l4.5,13.5l-11.6,8.3l14.3-0.2
						L4738.4-1218.6"/>
				</g>
				<g id="path40">
					<path fill="#F9E419" d="M4754.3-1277.5l4.3-13.5l14.3,0.2l-11.6-8.3l4.5-13.5l-11.4,8.5l-11.6-8.5l4.5,13.5l-11.6,8.3l14.4-0.2
						L4754.3-1277.5"/>
				</g>
				<g id="path42">
					<path fill="#F9E419" d="M4797.3-1320.5l4.3-13.5l14.3,0.2l-11.6-8.3l4.5-13.5l-11.4,8.5l-11.6-8.5l4.5,13.5l-11.6,8.3l14.4-0.2
						L4797.3-1320.5"/>
				</g>
				<g id="path44">
					<path fill="#F9E419" d="M4856.2-1336.4l4.3-13.5l14.3,0.2l-11.6-8.3l4.5-13.5l-11.6,8.5l-11.6-8.5l4.5,13.5l-11.6,8.3l14.4-0.2
						L4856.2-1336.4"/>
				</g>
				<g id="path46">
					<path fill="#F9E419" d="M4915-1320.5l4.3-13.5l14.3,0.2l-11.6-8.3l4.5-13.5l-11.4,8.5l-11.6-8.5l4.5,13.5l-11.6,8.3l14.4-0.2
						L4915-1320.5"/>
				</g>
				<g id="path48">
					<path fill="#F9E419" d="M4958-1277.5l4.3-13.5l14.3,0.2l-11.6-8.3l4.5-13.5l-11.4,8.5l-11.6-8.5l4.5,13.5l-11.6,8.3l14.4-0.2
						L4958-1277.5"/>
				</g>
				<g id="path50">
					<path fill="#F9E419" d="M4973.7-1218.6l4.3-13.5l14.3,0.2l-11.6-8.3l4.5-13.5l-11.6,8.5l-11.6-8.5l4.5,13.5l-11.6,8.3l14.4-0.2
						L4973.7-1218.6"/>
				</g>
				<g id="path52">
					<path fill="#F9E419" d="M4958-1159.8l4.3-13.5l14.3,0.2l-11.6-8.3l4.5-13.5l-11.6,8.5l-11.6-8.5l4.5,13.5l-11.6,8.3l14.4-0.2
						L4958-1159.8"/>
				</g>
				<g id="path54">
					<path fill="#F9E419" d="M4915-1116.8l4.3-13.5l14.3,0.2l-11.6-8.3l4.5-13.5l-11.4,8.5l-11.6-8.5l4.5,13.5l-11.6,8.3l14.4-0.2
						L4915-1116.8"/>
				</g>
			</g>
		</g>
	</g>
	<g id="Layer_4">
		<g>
			<path d="M574.2,530l-5.4,13l-5.4-13h2l3.6,9l3.4-9H574.2z"/>
			<path d="M581.4,535.2v7h-1.6v-1.1c-0.2,0.4-0.5,0.7-1.1,0.9c-0.5,0.2-1.1,0.4-1.6,0.4s-1.3-0.2-1.8-0.4c-0.5-0.4-1.1-0.7-1.3-1.3
				s-0.4-1.3-0.4-2s0.2-1.4,0.4-2s0.7-1.1,1.3-1.3c0.5-0.4,1.1-0.4,1.8-0.4c0.5,0,1.1,0.2,1.6,0.4c0.4,0.2,0.7,0.5,1.1,1.1l0.2-1.1
				L581.4,535.2L581.4,535.2z M579.1,540.8c0.4-0.4,0.7-0.7,0.7-1.3v-1.4c-0.2-0.5-0.4-0.9-0.9-1.3c-0.4-0.4-0.9-0.4-1.4-0.4
				c-0.4,0-0.7,0.2-1.1,0.4c-0.4,0.2-0.7,0.5-0.9,0.9s-0.4,0.7-0.4,1.3c0,0.4,0.2,0.9,0.4,1.3s0.5,0.7,0.9,0.9s0.7,0.4,1.3,0.4
				C578.2,541.2,578.7,541.2,579.1,540.8z"/>
			<path d="M585.8,529.1v13.4h-1.6v-13.4H585.8z"/>
			<path d="M595.9,535.2v7.2c0,0.7-0.2,1.3-0.4,1.8c-0.4,0.5-0.7,0.9-1.4,1.3c-0.5,0.4-1.3,0.4-2.2,0.4c-0.7,0-1.3-0.2-1.8-0.4
				s-1.1-0.5-1.6-1.1l0.9-1.1c0.4,0.4,0.7,0.7,1.1,0.9c0.4,0.2,0.7,0.4,1.3,0.4c0.7,0,1.3-0.2,1.8-0.5c0.4-0.4,0.7-0.9,0.7-1.6v-1.3
				c-0.2,0.4-0.7,0.7-1.1,1.1c-0.5,0.2-1.1,0.4-1.8,0.4s-1.3-0.2-1.8-0.5s-1.1-0.7-1.3-1.3c-0.4-0.5-0.4-1.3-0.4-1.8
				c0-0.7,0.2-1.3,0.5-2c0.4-0.7,0.7-1.1,1.3-1.3c0.5-0.4,1.1-0.5,1.8-0.5c0.5,0,1.1,0.2,1.6,0.4s0.9,0.5,1.1,0.9l0.2-1.1
				L595.9,535.2L595.9,535.2z M593.5,540.8c0.4-0.4,0.7-0.7,0.9-1.3v-1.4c-0.2-0.5-0.4-0.9-0.9-1.3c-0.4-0.4-0.9-0.4-1.6-0.4
				c-0.7,0-1.3,0.2-1.8,0.7c-0.5,0.4-0.7,1.1-0.7,1.8c0,0.4,0.2,0.9,0.4,1.3s0.5,0.7,0.9,0.9s0.7,0.4,1.3,0.4
				C592.6,541.2,593,541.2,593.5,540.8z"/>
			<path d="M605.3,535.2v7h-1.4l-0.2-1.3c-0.2,0.4-0.5,0.9-1.1,1.3c-0.5,0.4-1.1,0.4-1.6,0.4c-0.7,0-1.1-0.2-1.6-0.5
				c-0.4-0.4-0.7-0.9-0.7-1.6v-5.4h1.6v4.7c0,0.4,0.2,0.7,0.4,1.1c0.2,0.2,0.5,0.4,0.9,0.4s0.7-0.2,1.1-0.4c0.4-0.2,0.5-0.5,0.7-1.1
				c0.2-0.4,0.4-0.9,0.4-1.3v-3.3L605.3,535.2L605.3,535.2z"/>
			<path d="M608.5,542.3c-0.4-0.2-0.9-0.4-1.1-0.7l0.7-0.9c0.4,0.4,0.5,0.4,0.9,0.7c0.4,0.2,0.7,0.2,0.9,0.2c0.4,0,0.7-0.2,0.9-0.2
				c0.2-0.2,0.4-0.4,0.4-0.7c0-0.2-0.2-0.4-0.2-0.5c-0.2-0.2-0.4-0.2-0.5-0.4c-0.2-0.2-0.5-0.2-0.9-0.4c-1.3-0.4-1.8-1.1-1.8-2.2
				c0-0.5,0.2-1.1,0.7-1.6c0.4-0.4,1.1-0.7,1.8-0.7c0.5,0,0.9,0.2,1.3,0.2c0.4,0.2,0.7,0.4,1.1,0.5l-0.7,1.1
				c-0.2-0.2-0.4-0.4-0.7-0.4c-0.4-0.2-0.5-0.2-0.7-0.2c-0.4,0-0.5,0.2-0.7,0.2c-0.2,0.2-0.4,0.4-0.4,0.7c0,0.2,0.2,0.4,0.2,0.5
				c0.2,0.2,0.4,0.2,0.4,0.4c0.2,0.2,0.4,0.2,0.9,0.4s1.1,0.4,1.3,0.7c0.2,0.4,0.4,0.7,0.4,1.3c0,0.7-0.2,1.3-0.7,1.6
				c-0.4,0.4-1.1,0.7-2,0.7C609.6,542.6,609.1,542.5,608.5,542.3z"/>
			<path d="M617.2,532.2v3.1h1.8v1.3h-1.8v5.8h-1.6v-5.8h-1.3v-1.3h1.3v-3.1H617.2z"/>
			<path d="M627.7,535.2v7h-1.4L626,541c-0.2,0.4-0.5,0.9-1.1,1.3c-0.5,0.4-1.1,0.4-1.6,0.4c-0.7,0-1.1-0.2-1.6-0.5
				c-0.4-0.4-0.7-0.9-0.7-1.6v-5.4h1.6v4.7c0,0.4,0.2,0.7,0.4,1.1c0.2,0.2,0.5,0.4,0.9,0.4s0.7-0.2,1.1-0.4c0.4-0.2,0.5-0.5,0.7-1.1
				c0.2-0.4,0.4-0.9,0.4-1.3v-3.3h1.6V535.2z"/>
			<path d="M630.9,542.3c-0.4-0.2-0.9-0.4-1.1-0.7l0.7-0.9c0.4,0.4,0.5,0.4,0.9,0.7c0.4,0.2,0.7,0.2,0.9,0.2c0.4,0,0.7-0.2,0.9-0.2
				c0.2-0.2,0.4-0.4,0.4-0.7c0-0.2-0.2-0.4-0.2-0.5c-0.2-0.2-0.4-0.2-0.5-0.4c-0.2-0.2-0.5-0.2-0.9-0.4c-1.3-0.4-1.8-1.1-1.8-2.2
				c0-0.5,0.2-1.1,0.7-1.6c0.4-0.4,1.1-0.7,1.8-0.7c0.5,0,0.9,0.2,1.3,0.2s0.7,0.4,1.1,0.5l-0.7,1.3c-0.2-0.2-0.4-0.4-0.7-0.4
				c-0.4-0.2-0.5-0.2-0.7-0.2c-0.4,0-0.5,0.2-0.7,0.2c-0.2,0.2-0.4,0.4-0.4,0.7c0,0.2,0.2,0.4,0.2,0.5c0.2,0.2,0.4,0.2,0.4,0.4
				c0.2,0.2,0.4,0.2,0.9,0.4s1.1,0.4,1.3,0.7c0.4,0.4,0.4,0.7,0.4,1.3c0,0.7-0.2,1.3-0.7,1.6c-0.4,0.4-1.1,0.7-2,0.7
				C631.8,542.6,631.3,542.5,630.9,542.3z"/>
			<path d="M644.4,535.2v7h-1.6v-1.1c-0.2,0.4-0.5,0.7-1.1,0.9c-0.5,0.2-1.1,0.4-1.6,0.4s-1.3-0.2-1.8-0.4c-0.5-0.4-1.1-0.7-1.3-1.3
				s-0.4-1.3-0.4-2s0.2-1.4,0.4-2s0.7-1.1,1.3-1.3c0.5-0.4,1.1-0.4,1.8-0.4c0.5,0,1.1,0.2,1.6,0.4c0.4,0.2,0.7,0.5,1.1,1.1l0.2-1.1
				L644.4,535.2L644.4,535.2z M642.1,540.8c0.4-0.4,0.7-0.7,0.7-1.3v-1.4c-0.2-0.5-0.4-0.9-0.9-1.3c-0.5-0.4-0.9-0.4-1.4-0.4
				c-0.4,0-0.7,0.2-1.1,0.4c-0.4,0.2-0.7,0.5-0.9,0.9s-0.4,0.7-0.4,1.3c0,0.4,0.2,0.9,0.4,1.3s0.5,0.7,0.9,0.9s0.7,0.4,1.3,0.4
				C641.2,541.2,641.7,541.2,642.1,540.8z"/>
			<path d="M646.4,544.8c0.7-0.5,1.1-1.4,1.1-2.5v-7h1.6v7.2c0,0.7-0.2,1.4-0.4,2s-0.7,1.1-1.3,1.3L646.4,544.8z M647.5,532.2
				c0.2-0.2,0.4-0.2,0.7-0.2c0.2,0,0.4,0.2,0.7,0.2c0.2,0.2,0.4,0.4,0.4,0.7c0,0.4-0.2,0.4-0.4,0.7c-0.2,0.2-0.4,0.2-0.7,0.2
				c-0.2,0-0.4-0.2-0.7-0.2c-0.2-0.2-0.4-0.4-0.4-0.7C647.2,532.5,647.3,532.4,647.5,532.2z"/>
			<path d="M658.9,535.2v7h-1.6v-1.1c-0.2,0.4-0.5,0.7-1.1,0.9s-1.1,0.4-1.6,0.4s-1.3-0.2-1.8-0.4c-0.5-0.4-1.1-0.7-1.3-1.3
				c-0.2-0.5-0.4-1.3-0.4-2s0.2-1.4,0.4-2c0.2-0.5,0.7-1.1,1.3-1.3c0.5-0.4,1.1-0.4,1.8-0.4c0.5,0,1.1,0.2,1.6,0.4
				c0.4,0.2,0.7,0.5,1.1,1.1l0.2-1.1L658.9,535.2L658.9,535.2z M656.5,540.8c0.4-0.4,0.7-0.7,0.7-1.3v-1.4c-0.2-0.5-0.4-0.9-0.9-1.3
				c-0.4-0.4-0.9-0.4-1.4-0.4c-0.4,0-0.7,0.2-1.1,0.4c-0.4,0.2-0.7,0.5-0.9,0.9s-0.4,0.7-0.4,1.3c0,0.4,0.2,0.9,0.4,1.3
				s0.5,0.7,0.9,0.9s0.7,0.4,1.3,0.4C655.6,541.2,656,541.2,656.5,540.8z"/>
			<path d="M662.1,542.3c-0.4-0.2-0.9-0.4-1.1-0.7l0.7-0.9c0.4,0.4,0.5,0.4,0.9,0.7c0.4,0.2,0.7,0.2,0.9,0.2c0.4,0,0.7-0.2,0.9-0.2
				c0.2-0.2,0.4-0.4,0.4-0.7c0-0.2-0.2-0.4-0.2-0.5c-0.2-0.2-0.4-0.2-0.5-0.4c-0.2-0.2-0.5-0.2-0.9-0.4c-1.3-0.4-1.8-1.1-1.8-2.2
				c0-0.5,0.2-1.1,0.7-1.6c0.4-0.4,1.1-0.7,1.8-0.7c0.5,0,0.9,0.2,1.3,0.2c0.4,0,0.7,0.4,1.1,0.5l-0.7,1.1c-0.2-0.2-0.4-0.4-0.7-0.4
				c-0.4-0.2-0.5-0.2-0.7-0.2c-0.4,0-0.5,0.2-0.7,0.2c-0.2,0.2-0.4,0.4-0.4,0.7c0,0.2,0.2,0.4,0.2,0.5c0.2,0.2,0.4,0.2,0.4,0.4
				c0.2,0.2,0.4,0.2,0.9,0.4s1.1,0.4,1.3,0.7c0.4,0.4,0.4,0.7,0.4,1.3c0,0.7-0.2,1.3-0.7,1.6c-0.4,0.4-1.1,0.7-2,0.7
				C663,542.6,662.7,542.5,662.1,542.3z"/>
			<path d="M670.8,532.2v3.1h1.8v1.3h-1.8v5.8h-1.6v-5.8h-1.3v-1.3h1.3v-3.1H670.8z"/>
			<path d="M681.3,535.2v7h-1.4l-0.2-1.3c-0.2,0.4-0.5,0.9-1.1,1.3s-1.1,0.4-1.6,0.4c-0.7,0-1.1-0.2-1.6-0.5
				c-0.4-0.4-0.7-0.9-0.7-1.6v-5.4h1.6v4.7c0,0.4,0.2,0.7,0.4,1.1s0.5,0.4,0.9,0.4s0.7-0.2,1.1-0.4c0.4-0.2,0.5-0.5,0.7-1.1
				c0.2-0.4,0.4-0.9,0.4-1.3v-3.3L681.3,535.2L681.3,535.2z"/>
			<path d="M691.6,532.2v3.1h1.8v1.3h-1.8v5.8H690v-5.8h-1.3v-1.3h1.3v-3.1H691.6z"/>
			<path d="M700.4,540.7l0.7,1.3c-0.4,0.2-0.7,0.4-1.3,0.5c-0.4,0.2-0.9,0.2-1.3,0.2c-0.7,0-1.4-0.2-2-0.4c-0.5-0.2-1.1-0.7-1.3-1.3
				c-0.4-0.5-0.4-1.3-0.4-2s0.2-1.3,0.5-1.8c0.4-0.5,0.7-1.1,1.4-1.3c0.5-0.4,1.3-0.5,2-0.5c0.9,0,1.6,0.4,2.3,0.7
				c0.5,0.5,1.1,1.3,1.3,2.2l-5.6,2c0.2,0.4,0.4,0.7,0.7,0.9s0.7,0.4,1.3,0.4C699.2,541.2,699.9,541,700.4,540.7z M697,536.9
				c-0.4,0.4-0.7,1.1-0.7,1.8c0,0.2,0,0.4,0,0.4l4.2-1.6c-0.2-0.4-0.4-0.7-0.7-0.9s-0.7-0.4-1.1-0.4
				C697.9,536.3,697.4,536.5,697,536.9z"/>
			<path d="M711.4,535.2v7h-1.6v-1.1c-0.2,0.4-0.5,0.7-1.1,0.9s-1.1,0.4-1.6,0.4s-1.3-0.2-1.8-0.4c-0.5-0.4-1.1-0.7-1.3-1.3
				s-0.4-1.3-0.4-2s0.2-1.4,0.4-2s0.7-1.1,1.3-1.3c0.5-0.4,1.1-0.4,1.8-0.4c0.5,0,1.1,0.2,1.6,0.4c0.4,0.4,0.7,0.5,1.1,1.1l0.2-1.1
				L711.4,535.2L711.4,535.2z M709.1,540.8c0.4-0.4,0.7-0.7,0.7-1.3v-1.4c-0.2-0.5-0.4-0.9-0.9-1.3c-0.4-0.4-0.9-0.4-1.4-0.4
				c-0.4,0-0.7,0.2-1.1,0.4c-0.4,0.2-0.7,0.5-0.9,0.9s-0.4,0.7-0.4,1.3c0,0.4,0.2,0.9,0.4,1.3s0.5,0.7,0.9,0.9s0.7,0.4,1.3,0.4
				C708.2,541.2,708.6,541.2,709.1,540.8z"/>
			<path d="M720.5,535.4c0.5,0.4,0.9,0.7,1.3,1.3s0.4,1.3,0.4,2s-0.2,1.4-0.4,2s-0.7,1.1-1.3,1.3c-0.5,0.4-1.1,0.4-1.8,0.4
				c-0.5,0-1.1-0.2-1.6-0.4c-0.4-0.2-0.9-0.5-1.1-0.9v1.1h-1.6v-13.4h1.6v7c0.4-0.4,0.7-0.7,1.3-0.9c0.5-0.2,1.1-0.4,1.6-0.4
				C719.2,535.1,719.9,535.2,720.5,535.4z M719.7,540.5c0.4-0.4,0.7-1.1,0.7-1.8c0-0.4-0.2-0.9-0.4-1.3s-0.5-0.7-0.9-0.9
				s-0.7-0.4-1.3-0.4s-1.1,0.2-1.6,0.4c-0.4,0.4-0.7,0.7-0.9,1.3v1.4c0.2,0.5,0.4,0.9,0.9,1.3c0.4,0.4,0.9,0.5,1.6,0.5
				C718.8,541.2,719.4,541,719.7,540.5z"/>
			<path d="M729.3,540.7l0.7,1.3c-0.4,0.2-0.7,0.4-1.3,0.5c-0.4,0.2-0.9,0.2-1.3,0.2c-0.7,0-1.4-0.2-2-0.4c-0.5-0.2-1.1-0.7-1.3-1.3
				c-0.4-0.5-0.4-1.3-0.4-2s0.2-1.3,0.5-1.8c0.4-0.5,0.7-1.1,1.4-1.3c0.5-0.4,1.3-0.5,2-0.5c0.9,0,1.6,0.4,2.3,0.7
				c0.5,0.5,1.1,1.3,1.3,2.2l-5.6,2c0.2,0.4,0.4,0.7,0.7,0.9s0.7,0.4,1.3,0.4C728.1,541.2,728.8,541,729.3,540.7z M725.9,536.9
				c-0.4,0.4-0.7,1.1-0.7,1.8c0,0.2,0,0.4,0,0.4l4.2-1.6c-0.2-0.4-0.4-0.7-0.7-0.9s-0.7-0.4-1.1-0.4
				C726.8,536.3,726.2,536.5,725.9,536.9z"/>
			<path d="M739.6,535.2l-3.8,7.4h-0.2l-4-7.4h1.8l2.2,4.5l2-4.5H739.6z"/>
			<path d="M748.1,535.2v7h-1.6v-1.1c-0.2,0.4-0.5,0.7-1.1,0.9c-0.5,0.2-1.1,0.4-1.6,0.4c-0.7,0-1.3-0.2-1.8-0.4s-1.1-0.7-1.3-1.3
				s-0.4-1.3-0.4-2s0.2-1.4,0.4-2c0.4-0.5,0.7-1.1,1.3-1.3c0.5-0.4,1.1-0.4,1.8-0.4c0.5,0,1.1,0.2,1.6,0.4c0.4,0.4,0.7,0.5,1.1,1.1
				l0.2-1.1L748.1,535.2L748.1,535.2z M745.8,540.8c0.4-0.4,0.7-0.7,0.7-1.3v-1.4c-0.2-0.5-0.4-0.9-0.9-1.3
				c-0.4-0.4-0.9-0.4-1.4-0.4c-0.4,0-0.7,0.2-1.1,0.4c-0.4,0.2-0.7,0.5-0.9,0.9s-0.4,0.7-0.4,1.3c0,0.4,0.2,0.9,0.4,1.3
				s0.5,0.7,0.9,0.9s0.7,0.4,1.3,0.4C744.9,541.2,745.4,541.2,745.8,540.8z"/>
			<path d="M756.9,535.6c0.4,0.4,0.7,0.9,0.7,1.6v5.2H756v-4.7c0-0.4-0.2-0.7-0.4-0.9s-0.5-0.4-1.1-0.4s-0.7,0.2-1.1,0.4
				c-0.4,0.2-0.5,0.5-0.7,1.1c-0.2,0.4-0.4,0.9-0.4,1.3v3.3h-1.6v-13.4h1.6v7.4c0.2-0.4,0.7-0.9,1.1-1.1c0.4-0.2,1.1-0.4,1.6-0.4
				C755.9,535.1,756.4,535.2,756.9,535.6z"/>
			<path d="M765.3,540.7l0.7,1.3c-0.4,0.2-0.7,0.4-1.3,0.5c-0.4,0.2-0.9,0.2-1.3,0.2c-0.7,0-1.4-0.2-2-0.4c-0.5-0.2-1.1-0.7-1.3-1.3
				s-0.4-1.3-0.4-2s0.2-1.3,0.5-1.8s0.7-1.1,1.4-1.3c0.5-0.4,1.3-0.5,2-0.5c0.9,0,1.6,0.4,2.3,0.7c0.5,0.5,1.1,1.3,1.3,2.2l-5.6,2
				c0.2,0.4,0.4,0.7,0.7,0.9s0.7,0.4,1.3,0.4C764.2,541.2,764.7,541,765.3,540.7z M761.8,536.9c-0.4,0.4-0.7,1.1-0.7,1.8
				c0,0.2,0,0.4,0,0.4l4.2-1.6c-0.2-0.4-0.4-0.7-0.7-0.9c-0.4-0.2-0.7-0.4-1.1-0.4C762.7,536.3,762.2,536.5,761.8,536.9z"/>
			<path d="M775,535.6c0.4,0.4,0.7,0.9,0.7,1.6v5.2h-1.6v-4.7c0-0.4-0.2-0.7-0.4-0.9s-0.5-0.4-1.1-0.4c-0.7,0-1.1,0.2-1.6,0.7
				c-0.4,0.5-0.5,1.1-0.5,1.8v3.3h-1.6V535h1.4l0.2,1.3c0.2-0.5,0.7-0.9,1.1-1.3s1.1-0.4,1.6-0.4C774.1,535.1,774.6,535.2,775,535.6
				z"/>
			<path d="M785.8,529.1v13.4h-1.6v-1.1c-0.4,0.4-0.7,0.7-1.3,0.9c-0.4,0.2-1.1,0.4-1.6,0.4s-1.3-0.2-1.8-0.4
				c-0.5-0.4-0.9-0.7-1.3-1.3c-0.4-0.5-0.4-1.3-0.4-2s0.2-1.4,0.4-2c0.4-0.5,0.7-1.1,1.3-1.3c0.5-0.2,1.3-0.4,1.8-0.4
				s1.1,0.2,1.6,0.4s0.9,0.5,1.1,0.9v-7.2L785.8,529.1L785.8,529.1z M783.3,540.7c0.4-0.4,0.7-0.7,0.7-1.3v-1.3
				c-0.2-0.5-0.4-0.9-0.9-1.3c-0.4-0.4-0.9-0.4-1.6-0.4c-0.4,0-0.7,0.2-1.3,0.4c-0.4,0.2-0.7,0.5-0.9,0.9s-0.4,0.7-0.4,1.3
				c0,0.4,0.2,0.9,0.4,1.3c0.2,0.4,0.5,0.7,0.9,0.9s0.7,0.4,1.3,0.4C782.4,541.2,783,541,783.3,540.7z"/>
			<path d="M795.1,535.2v7h-1.4l-0.2-1.3c-0.2,0.4-0.5,0.9-1.1,1.3c-0.5,0.4-1.1,0.4-1.6,0.4c-0.7,0-1.1-0.2-1.6-0.5
				c-0.4-0.4-0.7-0.9-0.7-1.6v-5.4h1.6v4.7c0,0.4,0.2,0.7,0.4,1.1c0.2,0.2,0.5,0.4,0.9,0.4s0.7-0.2,1.1-0.4c0.4-0.2,0.5-0.5,0.7-1.1
				c0.2-0.4,0.4-0.9,0.4-1.3v-3.3L795.1,535.2L795.1,535.2z"/>
			<path d="M798.3,542.3c-0.4-0.2-0.9-0.4-1.1-0.7l0.7-0.9c0.4,0.4,0.5,0.4,0.9,0.7c0.4,0.2,0.7,0.2,0.9,0.2c0.4,0,0.7-0.2,0.9-0.2
				c0.2-0.2,0.4-0.4,0.4-0.7c0-0.2-0.2-0.4-0.2-0.5c-0.2-0.2-0.4-0.2-0.5-0.4c-0.2-0.2-0.5-0.2-0.9-0.4c-1.3-0.4-1.8-1.1-1.8-2.2
				c0-0.5,0.2-1.1,0.7-1.6c0.4-0.4,1.1-0.7,1.8-0.7c0.5,0,0.9,0.2,1.3,0.2c0.4,0.2,0.7,0.4,1.1,0.5l-0.7,1.1
				c-0.2-0.2-0.4-0.4-0.7-0.4c-0.4-0.2-0.5-0.2-0.7-0.2c-0.4,0-0.5,0.2-0.7,0.2c-0.2,0.2-0.4,0.4-0.4,0.7c0,0.2,0.2,0.4,0.2,0.5
				c0.2,0.2,0.4,0.2,0.4,0.4c0.2,0.2,0.4,0.2,0.9,0.4s1.1,0.4,1.3,0.7c0.4,0.4,0.4,0.7,0.4,1.3c0,0.7-0.2,1.3-0.7,1.6
				c-0.4,0.4-1.1,0.7-2,0.7C799.4,542.6,798.7,542.5,798.3,542.3z"/>
			<path d="M579.6,555.1v12.5h-0.7v-9.9l-5.1,7l0,0l-4.9-7v9.9h-0.7v-12.5l0,0l5.8,8.3L579.6,555.1L579.6,555.1L579.6,555.1z"/>
			<path d="M587.7,566.3l0.4,0.5c-0.4,0.2-0.7,0.4-1.1,0.7c-0.4,0.2-0.7,0.2-1.3,0.2c-0.7,0-1.3-0.2-1.8-0.4
				c-0.5-0.4-1.1-0.7-1.3-1.3c-0.4-0.5-0.4-1.1-0.4-1.8s0.2-1.3,0.4-1.8c0.4-0.5,0.7-1.1,1.3-1.3c0.5-0.2,1.1-0.4,1.8-0.4
				s1.4,0.2,2,0.7c0.5,0.5,0.9,1.1,1.3,1.8l-5.6,2.2c0.2,0.4,0.5,0.9,1.1,1.1c0.4,0.4,1.1,0.4,1.6,0.4
				C586.7,567,587.2,566.8,587.7,566.3z M584.5,561.6c-0.4,0.2-0.7,0.5-1.1,1.1c-0.2,0.4-0.4,0.9-0.4,1.4c0,0.2,0,0.4,0.2,0.7l4.9-2
				c-0.2-0.4-0.5-0.9-0.9-1.1c-0.4-0.2-0.9-0.4-1.3-0.4C585.4,561.2,584.9,561.4,584.5,561.6z"/>
			<path d="M597.9,554.4v13.2h-0.7v-1.4c-0.4,0.4-0.7,0.7-1.3,1.1c-0.5,0.4-1.1,0.4-1.8,0.4s-1.3-0.2-1.6-0.4
				c-0.5-0.4-0.9-0.7-1.3-1.3c-0.4-0.4-0.4-1.1-0.4-1.8s0.2-1.3,0.4-1.8s0.7-1.1,1.3-1.3c0.4-0.2,1.1-0.4,1.8-0.4
				c0.5,0,1.1,0.2,1.6,0.4c0.5,0.4,1.1,0.7,1.3,1.1v-7.8H597.9L597.9,554.4z M596,566.3c0.5-0.4,0.7-1.1,0.9-1.8v-0.9
				c-0.2-0.7-0.4-1.3-1.1-1.6c-0.5-0.4-1.1-0.7-1.8-0.7c-0.5,0-1.1,0.2-1.4,0.4c-0.4,0.2-0.7,0.5-1.1,1.1c-0.2,0.4-0.4,0.9-0.4,1.4
				s0.2,1.1,0.4,1.4c0.2,0.4,0.5,0.7,1.1,1.1c0.4,0.2,0.9,0.4,1.3,0.4C595,567,595.7,566.8,596,566.3z"/>
			<path d="M600.9,557.8c0.2-0.2,0.2-0.2,0.4-0.2s0.4,0,0.4,0.2c0.2,0.2,0.2,0.2,0.2,0.4s0,0.4-0.2,0.4c-0.2,0.2-0.2,0.2-0.4,0.2
				s-0.4,0-0.4-0.2c-0.2-0.2-0.2-0.2-0.2-0.4C600.6,558.2,600.7,558,600.9,557.8z M601.6,560.7v6.7h-0.7v-6.7H601.6z"/>
			<path d="M609.4,566.3l0.4,0.5c-0.4,0.2-0.7,0.4-1.1,0.7c-0.4,0.2-0.7,0.2-1.3,0.2c-0.7,0-1.3-0.2-1.8-0.4
				c-0.5-0.4-1.1-0.7-1.3-1.3c-0.4-0.5-0.4-1.1-0.4-1.8s0.2-1.3,0.4-1.8s0.7-1.1,1.3-1.3c0.5-0.2,1.1-0.4,1.8-0.4s1.4,0.2,2,0.7
				c0.5,0.5,0.9,1.1,1.3,1.8l-5.6,2.2c0.2,0.4,0.5,0.9,1.1,1.1c0.4,0.4,1.1,0.4,1.6,0.4C608.1,567,608.9,566.8,609.4,566.3z
				 M606.2,561.6c-0.4,0.2-0.7,0.5-1.1,1.1c-0.2,0.4-0.4,0.9-0.4,1.4c0,0.2,0,0.4,0.2,0.7l4.9-2c-0.2-0.4-0.5-0.9-0.9-1.1
				c-0.4-0.2-0.9-0.4-1.3-0.4C607.1,561.2,606.5,561.4,606.2,561.6z"/>
			<path d="M618.1,561.2c0.4,0.4,0.5,0.9,0.5,1.4v4.9h-0.7v-4.7c0-0.4-0.2-0.7-0.4-1.1c-0.2-0.4-0.7-0.4-1.1-0.4s-0.9,0.2-1.3,0.4
				c-0.4,0.2-0.7,0.5-0.9,0.9s-0.4,0.9-0.4,1.3v3.6H613v-6.7h0.7l0.2,1.4c0.2-0.5,0.5-0.9,1.1-1.3s1.1-0.4,1.6-0.4
				C617.2,560.7,617.5,560.7,618.1,561.2z"/>
			<path d="M627.1,561.1c0.5,0.4,0.9,0.7,1.3,1.3s0.4,1.1,0.4,1.8s-0.2,1.3-0.4,1.8c-0.4,0.5-0.7,1.1-1.3,1.3
				c-0.5,0.4-1.1,0.4-1.8,0.4c-0.5,0-1.1-0.2-1.6-0.4c-0.5-0.4-0.9-0.7-1.3-1.1v4.7h-0.7V561h0.7v1.4c0.4-0.5,0.7-0.9,1.3-1.3
				c0.5-0.4,1.1-0.4,1.8-0.4C626,560.7,626.6,560.7,627.1,561.1z M626.6,566.7c0.4-0.2,0.7-0.5,1.1-1.1c0.2-0.4,0.4-0.9,0.4-1.4
				s-0.2-1.1-0.4-1.4c-0.2-0.4-0.5-0.7-1.1-1.1c-0.4-0.2-0.9-0.4-1.4-0.4c-0.4,0-0.9,0.2-1.3,0.4c-0.4,0.2-0.7,0.5-1.1,0.9
				c-0.2,0.4-0.4,0.9-0.4,1.3v0.5c0,0.4,0.2,0.9,0.4,1.3c0.2,0.4,0.5,0.7,1.1,0.9c0.4,0.2,0.9,0.4,1.3,0.4
				C625.7,567,626.2,566.8,626.6,566.7z"/>
			<path d="M633.1,561.1c0.5-0.4,1.1-0.4,1.6-0.5v0.7c-0.5,0-1.1,0.2-1.3,0.4c-0.4,0.2-0.7,0.5-1.1,0.9s-0.4,0.9-0.4,1.3v3.6h-0.7
				v-6.7h0.7l0.2,1.6C632.2,562,632.5,561.4,633.1,561.1z"/>
			<path d="M643.2,560.7v6.7h-0.7V566c-0.2,0.4-0.7,0.7-1.3,1.1c-0.5,0.4-1.1,0.4-1.8,0.4s-1.3-0.2-1.6-0.4
				c-0.4-0.4-0.9-0.7-1.3-1.3c-0.4-0.5-0.4-1.1-0.4-1.8s0.2-1.3,0.4-1.8c0.4-0.5,0.7-0.9,1.3-1.3c0.5-0.4,1.1-0.4,1.8-0.4
				c0.5,0,1.1,0.2,1.6,0.4c0.5,0.4,0.9,0.7,1.1,1.3l0.2-1.4L643.2,560.7L643.2,560.7z M641.7,566.3c0.5-0.4,0.7-1.1,0.9-1.8v-1.1
				c-0.2-0.7-0.4-1.1-1.1-1.6c-0.5-0.4-1.1-0.7-1.8-0.7c-0.5,0-1.1,0.2-1.4,0.4c-0.4,0.2-0.7,0.5-1.1,1.1c-0.4,0.5-0.4,0.9-0.4,1.4
				s0.2,1.1,0.4,1.4c0.2,0.4,0.5,0.7,1.1,1.1c0.4,0.2,0.9,0.4,1.3,0.4C640.5,567,641.2,566.8,641.7,566.3z"/>
			<path d="M648.2,564l-1.1,1.1v2.7h-0.7v-13.2h0.7v9.4l3.6-3.3l0.4,0.4l-2.5,2.2l3.1,4.2h-0.9L648.2,564z"/>
			<path d="M655.5,557.8v3.1h2v0.7h-2v6h-0.7v-6h-1.4v-0.7h1.4v-3.1H655.5z"/>
			<path d="M659.4,557.8c0.2-0.2,0.2-0.2,0.4-0.2s0.4,0,0.4,0.2c0.2,0.2,0.2,0.2,0.2,0.4s0,0.4-0.2,0.4c-0.2,0.2-0.2,0.2-0.4,0.2
				s-0.4,0-0.4-0.2c-0.2-0.2-0.2-0.2-0.2-0.4C659.3,558.2,659.4,558,659.4,557.8z M660.3,560.7v6.7h-0.7v-6.7H660.3z"/>
			<path d="M665.2,564l-1.1,1.1v2.7h-0.9v-13.2h0.7v9.4l3.6-3.3l0.4,0.4l-2.5,2.2l3.1,4.2h-0.9L665.2,564z"/>
			<path d="M675.5,566.3l0.4,0.5c-0.4,0.2-0.7,0.4-1.1,0.7c-0.4,0.2-0.7,0.2-1.3,0.2c-0.7,0-1.3-0.2-1.8-0.4
				c-0.5-0.4-1.1-0.7-1.3-1.3c-0.4-0.5-0.4-1.1-0.4-1.8s0.2-1.3,0.4-1.8c0.4-0.5,0.7-1.1,1.3-1.3c0.5-0.2,1.1-0.4,1.8-0.4
				s1.4,0.2,2,0.7c0.5,0.5,0.9,1.1,1.3,1.8l-5.6,2.2c0.2,0.4,0.5,0.9,1.1,1.1c0.4,0.4,1.1,0.4,1.6,0.4
				C674.2,567,674.8,566.8,675.5,566.3z M672.1,561.6c-0.4,0.2-0.7,0.5-1.1,1.1c-0.2,0.4-0.4,0.9-0.4,1.4c0,0.2,0,0.4,0.2,0.7l4.9-2
				c-0.2-0.4-0.5-0.9-0.9-1.1s-0.9-0.4-1.3-0.4C673,561.2,672.6,561.4,672.1,561.6z"/>
			<path d="M683.8,561.2c0.4,0.4,0.5,0.9,0.5,1.4v4.9h-0.7v-4.7c0-0.4-0.2-0.7-0.4-1.1c-0.2-0.4-0.7-0.4-1.1-0.4
				c-0.4,0-0.9,0.2-1.3,0.4c-0.4,0.2-0.7,0.5-0.9,0.9s-0.4,0.9-0.4,1.3v3.6h-0.7v-6.7h0.7l0.2,1.4c0.2-0.5,0.5-0.9,1.1-1.3
				s1.1-0.4,1.6-0.4C682.9,560.7,683.6,560.7,683.8,561.2z"/>
			<path d="M699.2,554.4v13.2h-0.7v-1.4c-0.4,0.4-0.7,0.7-1.3,1.1c-0.4,0.4-1.1,0.4-1.6,0.4c-0.7,0-1.3-0.2-1.6-0.4
				c-0.5-0.4-0.9-0.7-1.3-1.3c-0.4-0.4-0.4-1.1-0.4-1.8s0.2-1.3,0.4-1.8c0.4-0.5,0.7-1.1,1.3-1.3c0.5-0.4,1.1-0.4,1.8-0.4
				c0.5,0,1.1,0.2,1.6,0.4c0.5,0.4,1.1,0.7,1.3,1.1v-7.8H699.2L699.2,554.4z M697.5,566.3c0.5-0.4,0.7-1.1,0.9-1.8v-0.9
				c-0.2-0.7-0.4-1.3-1.1-1.6c-0.5-0.4-1.1-0.7-1.8-0.7c-0.5,0-1.1,0.2-1.4,0.4c-0.4,0.2-0.7,0.5-1.1,1.1c-0.2,0.4-0.4,0.9-0.4,1.4
				s0.2,1.1,0.4,1.4c0.2,0.4,0.5,0.7,1.1,1.1c0.4,0.2,0.9,0.4,1.3,0.4C696.5,567,697.2,566.8,697.5,566.3z"/>
			<path d="M707.1,566.3l0.4,0.5c-0.4,0.2-0.7,0.4-1.1,0.7c-0.4,0.2-0.7,0.2-1.3,0.2c-0.7,0-1.3-0.2-1.8-0.4
				c-0.5-0.4-1.1-0.7-1.3-1.3c-0.4-0.5-0.4-1.1-0.4-1.8s0.2-1.3,0.4-1.8s0.7-1.1,1.3-1.3c0.5-0.4,1.1-0.4,1.8-0.4s1.4,0.2,2,0.7
				c0.5,0.4,0.9,1.1,1.3,1.8l-5.6,2.2c0.2,0.4,0.5,0.9,1.1,1.1c0.4,0.4,1.1,0.4,1.6,0.4C705.8,567,706.6,566.8,707.1,566.3z
				 M703.9,561.6c-0.4,0.2-0.7,0.5-1.1,1.1c-0.2,0.4-0.4,0.9-0.4,1.4c0,0.2,0,0.4,0.2,0.7l4.9-2c-0.2-0.4-0.5-0.9-0.9-1.1
				s-0.9-0.4-1.3-0.4C704.8,561.2,704.2,561.4,703.9,561.6z"/>
			<path d="M712.5,561.1c0.5-0.4,1.1-0.4,1.6-0.5v0.7c-0.5,0-1.1,0.2-1.3,0.4c-0.4,0.2-0.7,0.5-1.1,0.9c-0.2,0.4-0.4,0.9-0.4,1.3
				v3.6h-0.7v-6.7h0.7l0.2,1.6C711.6,562,712,561.4,712.5,561.1z"/>
			<path d="M728.6,563.4h-5.4l-1.6,4h-0.9l5.1-12.8h0.2l5.1,12.8H730L728.6,563.4z M728.4,562.7l-2.3-6l-2.3,6H728.4z"/>
			<path d="M739.3,560.7v6.7h-0.7V566c-0.2,0.4-0.5,0.9-1.1,1.1c-0.5,0.4-1.1,0.4-1.6,0.4s-1.1-0.2-1.4-0.5
				c-0.4-0.4-0.5-0.9-0.5-1.4v-4.9h0.7v4.7c0,0.4,0.2,0.7,0.4,1.1c0.2,0.4,0.7,0.4,1.1,0.4c0.4,0,0.9-0.2,1.3-0.4
				c0.4-0.2,0.7-0.5,0.9-0.9s0.4-0.9,0.4-1.3v-3.6h0.7v0H739.3z"/>
			<path d="M742.7,561.6h-1.1v-0.7h1.1v-3.3c0-1.1,0.2-1.8,0.5-2.3c0.4-0.5,0.9-0.7,1.6-0.7c0.4,0,0.7,0.2,1.1,0.2l-0.4,0.5
				c-0.2-0.2-0.4-0.2-0.5-0.2c-0.5,0-0.9,0.2-1.1,0.5s-0.4,1.1-0.4,1.8v3.4h2.2v0.7h-2.2v6h-0.9v-5.9H742.7z"/>
			<path d="M749.7,564l-1.1,1.1v2.7h-0.7v-13.2h0.7v9.4l3.6-3.3l0.4,0.4l-2.5,2.2l3.1,4.2h-0.9L749.7,564z"/>
			<path d="M756,554.4v13.2h-0.7v-13.2H756z"/>
			<path d="M765.6,560.7v6.7h-0.7V566c-0.2,0.4-0.7,0.7-1.3,1.1c-0.5,0.4-1.1,0.4-1.8,0.4s-1.3-0.2-1.6-0.4
				c-0.4-0.4-0.9-0.7-1.3-1.3c-0.4-0.5-0.4-1.1-0.4-1.8s0.2-1.3,0.4-1.8c0.4-0.5,0.7-0.9,1.3-1.3c0.5-0.4,1.1-0.4,1.8-0.4
				c0.5,0,1.1,0.2,1.6,0.4c0.4,0.4,0.9,0.7,1.1,1.3l0.2-1.4L765.6,560.7L765.6,560.7z M764,566.3c0.5-0.4,0.7-1.1,0.9-1.8v-1.1
				c-0.2-0.7-0.4-1.1-1.1-1.6c-0.5-0.4-1.1-0.7-1.8-0.7c-0.5,0-1.1,0.2-1.4,0.4c-0.4,0.2-0.7,0.5-1.1,1.1c-0.2,0.4-0.4,0.9-0.4,1.4
				s0.2,1.1,0.4,1.4c0.2,0.4,0.5,0.7,1.1,1.1c0.5,0.4,0.9,0.4,1.3,0.4C762.9,567,763.5,566.8,764,566.3z M760.7,558.2
				c0.2-0.2,0.2-0.2,0.4-0.2s0.4,0,0.4,0.2c0.2,0.2,0.2,0.2,0.2,0.4s0,0.4-0.2,0.4c-0.2,0.2-0.2,0.2-0.4,0.2s-0.4,0-0.4-0.2
				c-0.2-0.2-0.2-0.2-0.2-0.4C760.4,558.4,760.6,558.4,760.7,558.2z M763.6,558.2c0.2-0.2,0.2-0.2,0.4-0.2s0.2,0,0.4,0.2
				s0.2,0.2,0.2,0.4s0,0.4-0.2,0.4c-0.2,0.2-0.2,0.2-0.4,0.2s-0.4,0-0.4-0.2c-0.2-0.2-0.2-0.2-0.2-0.4
				C763.5,558.4,763.5,558.4,763.6,558.2z"/>
			<path d="M770.5,561.1c0.5-0.4,1.1-0.4,1.6-0.5v0.7c-0.5,0-1.1,0.2-1.3,0.4c-0.4,0.2-0.7,0.5-1.1,0.9c-0.2,0.4-0.4,0.9-0.4,1.3
				v3.6h-0.9v-6.7h0.7l0.2,1.6C769.8,562,770,561.4,770.5,561.1z"/>
			<path d="M780.1,560.7v6.7h-0.7V566c-0.2,0.4-0.5,0.9-1.1,1.1c-0.5,0.4-1.1,0.4-1.6,0.4s-1.1-0.2-1.4-0.5
				c-0.4-0.4-0.5-0.9-0.5-1.4v-4.9h0.7v4.7c0,0.4,0.2,0.7,0.4,1.1c0.2,0.4,0.7,0.4,1.1,0.4c0.4,0,0.9-0.2,1.3-0.4
				c0.4-0.2,0.7-0.5,0.9-0.9s0.4-0.9,0.4-1.3v-3.6h0.7v0H780.1z"/>
			<path d="M788.2,561.2c0.4,0.4,0.5,0.9,0.5,1.4v4.9H788v-4.7c0-0.4-0.2-0.7-0.4-1.1c-0.2-0.4-0.7-0.4-1.1-0.4s-0.9,0.2-1.3,0.4
				c-0.4,0.2-0.7,0.5-0.9,0.9s-0.4,0.9-0.4,1.3v3.6h-0.7v-6.7h0.7l0.2,1.4c0.2-0.5,0.5-0.9,1.1-1.3c0.5-0.4,1.1-0.4,1.6-0.4
				C787.3,560.7,787.8,560.7,788.2,561.2z"/>
			<path d="M798.3,560.7v6.9c0,0.9-0.4,1.6-0.9,2.2s-1.4,0.9-2.7,0.9c-0.5,0-1.1-0.2-1.6-0.4c-0.4-0.2-1.1-0.5-1.4-1.1l0.4-0.5
				c0.4,0.4,0.9,0.7,1.3,0.9s0.9,0.2,1.3,0.2c1.1,0,1.6-0.2,2.2-0.7c0.5-0.5,0.7-1.1,0.7-1.8v-1.4c-0.4,0.4-0.7,0.9-1.3,1.3
				c-0.5,0.4-1.1,0.4-1.8,0.4s-1.3-0.2-1.6-0.4c-0.5-0.4-0.9-0.7-1.3-1.3s-0.4-1.1-0.4-1.8s0.2-1.3,0.4-1.8c0.4-0.5,0.7-1.1,1.3-1.3
				c0.5-0.2,1.1-0.4,1.8-0.4c0.5,0,1.1,0.2,1.6,0.4c0.5,0.4,0.9,0.7,1.3,1.1l0.2-1.4L798.3,560.7L798.3,560.7z M796.1,566.7
				c0.4-0.2,0.7-0.5,1.1-0.9c0.2-0.4,0.4-0.7,0.4-1.3v-1.1c-0.2-0.7-0.4-1.3-1.1-1.6c-0.5-0.4-1.1-0.7-1.8-0.7
				c-0.5,0-1.1,0.2-1.4,0.4c-0.4,0.2-0.7,0.5-1.1,1.1c-0.2,0.4-0.4,0.9-0.4,1.4s0.2,1.1,0.4,1.4c0.2,0.4,0.5,0.7,1.1,1.1
				c0.4,0.2,0.9,0.4,1.4,0.4C795.2,567,795.8,566.8,796.1,566.7z"/>
			<path d="M647.3,591.8v0.7h-7c1.3-1.3,2.3-2.3,3.1-3.1c0.7-0.7,1.3-1.6,1.8-2.5s0.7-1.6,0.7-2.3s-0.2-1.1-0.4-1.6
				c-0.2-0.4-0.5-0.7-0.9-0.9s-0.7-0.4-1.1-0.4c-0.5,0-1.1,0.2-1.4,0.4c-0.4,0.4-0.7,0.5-0.7,1.1c-0.2,0.4-0.2,0.7-0.2,1.1
				c0,0.7,0.2,1.4,0.7,1.8l-0.5,0.4c-0.4-0.2-0.5-0.5-0.7-1.1c-0.2-0.4-0.2-0.9-0.2-1.3c0-0.7,0.2-1.3,0.4-1.6
				c0.4-0.4,0.7-0.9,1.1-1.3c0.5-0.4,1.1-0.4,1.8-0.4s1.3,0.2,1.6,0.4c0.4,0.4,0.9,0.7,1.1,1.3c0.2,0.5,0.4,1.1,0.4,1.8
				s-0.2,1.3-0.5,2.2c-0.4,0.7-0.7,1.3-1.3,2c-0.5,0.7-1.3,1.4-2.2,2.3l-0.7,0.7h5.2L647.3,591.8L647.3,591.8z"/>
			<path d="M650.8,591.9c-0.7-0.5-1.3-1.3-1.6-2.2c-0.4-0.9-0.5-1.8-0.5-2.9c0-1.1,0.2-2.2,0.5-2.9c0.4-0.7,0.9-1.6,1.6-2
				s1.6-0.7,2.5-0.7s1.8,0.2,2.5,0.7s1.3,1.3,1.6,2c0.4,0.9,0.5,1.8,0.5,2.9c0,1.1-0.2,2-0.5,2.9c-0.4,0.9-0.9,1.6-1.6,2
				c-0.7,0.5-1.6,0.7-2.5,0.7C652.2,592.7,651.5,592.5,650.8,591.9z M655.1,591.2c0.5-0.4,1.1-1.1,1.3-1.6c0.4-0.7,0.4-1.6,0.4-2.5
				c0-1.1-0.2-1.8-0.4-2.5s-0.7-1.3-1.3-1.6c-0.5-0.4-1.3-0.5-2-0.5s-1.4,0.2-2,0.5c-0.5,0.4-1.1,1.1-1.3,1.6
				c-0.4,0.7-0.4,1.6-0.4,2.5c0,1.1,0.2,1.8,0.4,2.5c0.4,0.7,0.7,1.3,1.3,1.6c0.5,0.4,1.3,0.5,2,0.5
				C654,591.9,654.6,591.8,655.1,591.2z"/>
			<path d="M662,581.3v11.2h-0.9V582h-1.6v-0.7H662L662,581.3z"/>
			<path d="M670.3,586.2c0.5,0.4,0.9,0.7,1.3,1.3c0.4,0.5,0.4,1.1,0.4,1.8s-0.2,1.3-0.5,1.8c-0.4,0.5-0.7,1.1-1.3,1.3
				c-0.5,0.4-1.1,0.4-1.8,0.4s-1.3-0.2-1.8-0.5c-0.5-0.4-1.1-0.7-1.3-1.4c-0.4-0.5-0.4-1.3-0.4-2c0-1.1,0.2-2,0.7-2.7
				s1.1-1.6,1.8-2.3s1.6-1.4,2.7-2.2l0.5,0.7c-1.3,0.7-2.2,1.4-2.9,2.2c-0.7,0.7-1.3,1.6-1.6,2.3c0.7-0.7,1.4-1.1,2.5-1.1
				C669,585.6,669.5,585.8,670.3,586.2z M669.5,591.6c0.4-0.2,0.7-0.5,1.1-1.1c0.2-0.4,0.4-0.9,0.4-1.4s-0.2-1.1-0.4-1.4
				s-0.5-0.7-1.1-1.1c-0.4-0.2-0.9-0.4-1.4-0.4s-1.1,0.2-1.4,0.4c-0.4,0.2-0.7,0.5-1.1,1.1c-0.2,0.4-0.4,0.9-0.4,1.3v0.2
				c0,0.5,0.2,1.1,0.4,1.4c0.2,0.4,0.5,0.7,1.1,1.1c0.4,0.2,0.9,0.4,1.4,0.4C668.8,592.1,669.4,591.8,669.5,591.6z"/>
			<path d="M685.8,585.1v1.4h-6.1v-1.4H685.8z"/>
			<path d="M701.1,591.8v0.7h-7c1.3-1.3,2.3-2.3,3.1-3.1c0.7-0.7,1.3-1.6,1.8-2.5s0.7-1.6,0.7-2.3s-0.2-1.1-0.4-1.6
				c-0.2-0.4-0.5-0.7-0.9-0.9s-0.7-0.4-1.1-0.4c-0.5,0-1.1,0.2-1.4,0.4c-0.4,0.4-0.7,0.5-0.7,1.1c-0.2,0.4-0.2,0.7-0.2,1.1
				c0,0.7,0.2,1.4,0.7,1.8l-0.5,0.4c-0.4-0.2-0.5-0.5-0.7-1.1c-0.2-0.4-0.2-0.9-0.2-1.3c0-0.7,0.2-1.3,0.4-1.6
				c0.4-0.4,0.7-0.9,1.1-1.3c0.5-0.4,1.1-0.4,1.8-0.4s1.3,0.2,1.6,0.4c0.4,0.4,0.9,0.7,1.1,1.3c0.2,0.5,0.4,1.1,0.4,1.8
				s-0.2,1.3-0.5,2.2c-0.4,0.7-0.7,1.3-1.3,2c-0.5,0.7-1.3,1.4-2.2,2.3l-0.7,0.7h5.2L701.1,591.8L701.1,591.8z"/>
			<path d="M704.6,591.9c-0.7-0.5-1.3-1.3-1.6-2.2c-0.4-0.9-0.5-1.8-0.5-2.9c0-1.1,0.2-2.2,0.5-2.9c0.4-0.7,0.9-1.6,1.6-2
				c0.7-0.4,1.6-0.7,2.5-0.7s1.8,0.2,2.5,0.7s1.3,1.3,1.6,2c0.4,0.7,0.5,1.8,0.5,2.9c0,1.1-0.2,2-0.5,2.9c-0.4,0.9-0.9,1.6-1.6,2
				c-0.7,0.5-1.6,0.7-2.5,0.7C706.2,592.7,705.3,592.5,704.6,591.9z M709.1,591.2c0.5-0.4,1.1-1.1,1.3-1.6c0.4-0.7,0.4-1.6,0.4-2.5
				c0-1.1-0.2-1.8-0.4-2.5c-0.4-0.7-0.7-1.3-1.3-1.6c-0.5-0.4-1.3-0.5-2-0.5s-1.4,0.2-2,0.5c-0.5,0.4-1.1,1.1-1.3,1.6
				c-0.4,0.7-0.4,1.6-0.4,2.5c0,1.1,0.2,1.8,0.4,2.5c0.4,0.7,0.7,1.3,1.3,1.6c0.5,0.4,1.3,0.5,2,0.5
				C707.8,591.9,708.4,591.8,709.1,591.2z"/>
			<path d="M715.8,581.3v11.2h-0.9V582h-1.6v-0.7H715.8L715.8,581.3z"/>
			<path d="M723.9,582c0.5,0.4,1.1,0.7,1.3,1.3c0.4,0.5,0.4,1.3,0.4,1.8c0,1.1-0.2,2-0.7,2.9s-1.3,1.6-2,2.3s-1.6,1.4-2.7,2.2
				l-0.5-0.7c1.1-0.7,2.2-1.4,2.9-2.2c0.7-0.7,1.3-1.4,1.6-2.2c-0.4,0.4-0.7,0.5-1.1,0.7c-0.4,0.2-0.9,0.2-1.3,0.2
				c-0.5,0-1.1-0.2-1.6-0.4c-0.5-0.4-0.9-0.7-1.3-1.3s-0.4-1.1-0.4-1.8s0.2-1.3,0.5-1.8c0.4-0.5,0.7-1.1,1.3-1.3s1.1-0.4,1.8-0.4
				C722.6,581.6,723.4,581.8,723.9,582z M724.1,587.2c0.5-0.4,0.7-1.1,0.7-2V585c0-0.5-0.2-1.1-0.4-1.4c-0.2-0.4-0.5-0.7-1.1-1.1
				c-0.4-0.2-0.9-0.4-1.3-0.4c-0.5,0-1.1,0.2-1.4,0.4c-0.4,0.2-0.7,0.5-1.1,1.1c-0.2,0.4-0.4,0.9-0.4,1.4s0.2,1.1,0.4,1.4
				c0.2,0.4,0.5,0.7,1.1,1.1c0.4,0.2,0.9,0.4,1.4,0.4C723,588,723.5,587.8,724.1,587.2z"/>
		</g>
	</g>
</g>
<g>
	<defs>
		<rect id="SVGID_1_" x="353.5" y="456.6" width="165.5" height="94.2"/>
	</defs>
	<clipPath id="SVGID_2_">
		<use xlink:href="#SVGID_1_"  overflow="visible"/>
	</clipPath>
	<g clip-path="url(#SVGID_2_)">
		
			<image overflow="visible" width="960" height="960" xlink:href="50906945_811649565837820_7209990401845886976_n.jpg"  transform="matrix(0.2102 0 0 0.2102 339.8812 402.3874)">
		</image>
	</g>
</g>
<image overflow="visible" width="271" height="74" xlink:href="FDE6F5A8.png"  transform="matrix(0.7649 0 0 0.7649 821.8998 469.3375)">
</image>
</svg>
